<?xml version="1.0" encoding="utf-8"?>
<!-- Generator: Adobe Illustrator 24.2.1, SVG Export Plug-In . SVG Version: 6.00 Build 0)  -->
<svg version="1.1" id="Capa_1" xmlns="http://www.w3.org/2000/svg" xmlns:xlink="http://www.w3.org/1999/xlink" x="0px" y="0px"
	 viewBox="0 0 168 168" style="enable-background:new 0 0 168 168;" xml:space="preserve">
<style type="text/css">
	.st0{fill:#090446;}
	.st1{fill:#FFFFFF;fill-opacity:0.34;}
	.st2{fill:#FFFFFF;}
</style>
<circle class="st0" cx="84" cy="84" r="84"/>
<g>
	<path class="st1" d="M70.3,106.3h27.9v5.6H70.3V106.3z"/>
	<path class="st1" d="M75.9,117.4h16.7v5.6H75.9V117.4z"/>
	<path class="st1" d="M84.3,45c-7.4,0-14.5,2.9-19.7,8.2c-5.2,5.2-8.2,12.3-8.2,19.7c-0.2,4,0.6,8.1,2.3,11.8
		c1.7,3.7,4.2,6.9,7.4,9.5c2.8,2.6,4.3,4.1,4.3,6.6h5.6c0-5.1-3.1-8-6.1-10.8c-2.6-2-4.7-4.6-6-7.6c-1.4-3-2-6.3-1.8-9.5
		c0-5.9,2.3-11.6,6.5-15.8c4.2-4.2,9.8-6.5,15.8-6.5c5.9,0,11.6,2.3,15.8,6.5c4.2,4.2,6.5,9.8,6.5,15.8c0.2,3.3-0.4,6.5-1.8,9.5
		c-1.4,3-3.4,5.6-6.1,7.6c-3,2.8-6.1,5.6-6.1,10.8h5.6c0-2.6,1.5-4,4.3-6.7c3.2-2.5,5.7-5.8,7.4-9.4c1.7-3.7,2.5-7.7,2.3-11.8
		c0-3.7-0.7-7.3-2.1-10.7c-1.4-3.4-3.5-6.5-6-9c-2.6-2.6-5.7-4.6-9-6C91.5,45.7,87.9,45,84.3,45z"/>
</g>
<path class="st2" d="M70.3,106.3h27.9v5.6H70.3V106.3z"/>
<path class="st2" d="M75.9,117.4h16.7v5.6H75.9V117.4z"/>
<path class="st2" d="M84.3,45c-7.4,0-14.5,2.9-19.7,8.2c-5.2,5.2-8.2,12.3-8.2,19.7c-0.2,4,0.6,8.1,2.3,11.8
	c1.7,3.7,4.2,6.9,7.4,9.5c2.8,2.6,4.3,4.1,4.3,6.6h5.6c0-5.1-3.1-8-6.1-10.8c-2.6-2-4.7-4.6-6-7.6c-1.4-3-2-6.3-1.8-9.5
	c0-5.9,2.3-11.6,6.5-15.8c4.2-4.2,9.8-6.5,15.8-6.5c5.9,0,11.6,2.3,15.8,6.5c4.2,4.2,6.5,9.8,6.5,15.8c0.2,3.3-0.4,6.5-1.8,9.5
	c-1.4,3-3.4,5.6-6.1,7.6c-3,2.8-6.1,5.6-6.1,10.8h5.6c0-2.6,1.5-4,4.3-6.7c3.2-2.5,5.7-5.8,7.4-9.4c1.7-3.7,2.5-7.7,2.3-11.8
	c0-3.7-0.7-7.3-2.1-10.7c-1.4-3.4-3.5-6.5-6-9c-2.6-2.6-5.7-4.6-9-6C91.5,45.7,87.9,45,84.3,45z"/>
</svg>
