<?xml version="1.0" encoding="utf-8"?>
<!-- Generator: Adobe Illustrator 24.2.1, SVG Export Plug-In . SVG Version: 6.00 Build 0)  -->
<svg version="1.1" id="Capa_1" xmlns="http://www.w3.org/2000/svg" xmlns:xlink="http://www.w3.org/1999/xlink" x="0px" y="0px"
	 viewBox="0 0 168 168" style="enable-background:new 0 0 168 168;" xml:space="preserve">
<style type="text/css">
	.st0{fill:#090446;}
	.st1{fill:#FFFFFF;fill-opacity:0.34;}
	.st2{fill:#FFFFFF;}
</style>
<circle class="st0" cx="84" cy="84" r="84"/>
<g>
	<path class="st1" d="M87.3,105.9H81c-1.1,0-1.9-0.7-2.2-1.7l-1.1-3.9l-0.9-0.4l-3.5,2c-0.9,0.4-1.9,0.4-2.6-0.4l-4.6-4.5
		c-0.7-0.7-0.9-1.7-0.4-2.6l1.9-3.5l-0.4-0.9l-3.9-1.1c-0.9-0.2-1.7-1.1-1.7-2.2v-6.3c0-1.1,0.6-1.9,1.7-2.2l3.9-1.1l0.4-0.9
		l-1.9-3.5c-0.4-0.9-0.4-1.9,0.4-2.6l4.6-4.6c0.6-0.7,1.7-0.9,2.6-0.4l3.5,1.9l0.9-0.4l1.1-3.9C79,61.9,79.9,61,81,61h6.3
		c1.1,0,1.9,0.7,2.2,1.7l1.1,3.9l0.9,0.4l3.5-1.9c0.9-0.4,2-0.4,2.6,0.4l4.5,4.6c0.7,0.7,0.9,1.7,0.4,2.6l-1.9,3.5l0.4,0.9l3.9,1.1
		c0.9,0.2,1.7,1.1,1.7,2.2v6.3c0,1.1-0.6,1.9-1.7,2.2l-3.9,1.1l-0.4,0.9l1.9,3.5c0.4,0.9,0.4,2-0.4,2.6l-4.5,4.5
		c-0.6,0.7-1.7,0.9-2.6,0.4l-3.5-2l-0.9,0.4l-1.1,3.9C89,105.2,88.1,105.9,87.3,105.9z M82.5,101.5h3l1.1-4.6l1.1-0.4
		c0.9-0.2,1.5-0.7,2.4-0.9l1.1-0.7l4.1,2.4l2.2-2.2l-2.4-4.1l0.6-1.1c0.4-0.7,0.6-1.5,0.9-2.4l0.4-1.1l4.6-1.1v-3L97,81.4l-0.4-1.1
		c-0.2-0.9-0.7-1.5-0.9-2.4l-0.6-1.1l2.4-4.1l-2.2-2.2l-4.1,2.4l-1.1-0.7c-0.7-0.4-1.5-0.6-2.4-0.9L86.6,71l-1.1-4.6h-3L81.4,71
		l-1.1,0.4c-0.9,0.2-1.5,0.7-2.4,0.9l-1.1,0.7l-4.1-2.4l-2.2,2.2l2.4,4.1l-0.6,1.1c-0.4,0.7-0.6,1.5-0.9,2.4L71,81.4l-4.6,1.1v3
		l4.6,1.1l0.4,1.1c0.2,0.9,0.6,1.5,0.9,2.4l0.6,1.1l-2.4,4.1l2.2,2.2l4.1-2.4l1.1,0.7c0.6,0.4,1.5,0.7,2.4,0.9l1.1,0.4L82.5,101.5z"
		/>
	<path class="st1" d="M84,93.3c-5.2,0-9.3-4.1-9.3-9.3c0-5.2,4.1-9.3,9.3-9.3c5.2,0,9.3,4.1,9.3,9.3C93.3,89.2,89.2,93.3,84,93.3z
		 M84,79c-2.8,0-5,2.2-5,5c0,2.8,2.2,5,5,5c2.8,0,5-2.2,5-5C89,81.2,86.8,79,84,79z"/>
	<path class="st1" d="M84,49.3c-1.3,0-2.2,0.9-2.2,2.2c0,1.3,0.9,2.2,2.2,2.2c16.7,0,30.3,13.6,30.3,30.3
		c0,16.7-13.6,30.3-30.3,30.3c-16.7,0-30.3-13.7-30.3-30.3c0-6.1,1.7-11.9,5.2-16.9v2.6c0,1.3,0.9,2.2,2.2,2.2s2.2-0.9,2.2-2.2V58.9
		H52.4c-1.3,0-2.2,0.9-2.2,2.2s0.9,2.2,2.2,2.2h3.9c-4.5,5.8-6.9,13.2-6.9,20.8c0,19.1,15.6,34.7,34.7,34.7
		c19.1,0,34.7-15.6,34.7-34.7C118.7,64.9,103.1,49.3,84,49.3z"/>
</g>
<path class="st2" d="M87.1,105.9h-6.3c-1.1,0-1.9-0.7-2.2-1.7l-1.1-3.9l-0.9-0.4l-3.5,2c-0.9,0.4-2,0.4-2.6-0.4l-4.6-4.5
	c-0.7-0.7-0.9-1.7-0.4-2.6l2-3.5l-0.4-0.9l-3.9-1.1c-0.9-0.2-1.7-1.1-1.7-2.2v-6.3c0-1.1,0.7-1.9,1.7-2.2l3.9-1.1l0.4-0.9l-2-3.5
	c-0.4-0.9-0.4-1.9,0.4-2.6l4.6-4.6c0.6-0.7,1.7-0.9,2.6-0.4l3.5,1.9l0.9-0.4l1.1-3.9c0.2-0.9,1.1-1.7,2.2-1.7h6.3
	c1.1,0,1.9,0.7,2.2,1.7l1.1,3.9l0.9,0.4l3.5-1.9c0.9-0.4,2-0.4,2.6,0.4l4.5,4.6c0.7,0.7,0.9,1.7,0.4,2.6l-1.9,3.5l0.4,0.9l3.9,1.1
	c0.9,0.2,1.7,1.1,1.7,2.2v6.3c0,1.1-0.6,1.9-1.7,2.2l-3.9,1.1l-0.4,0.9l1.9,3.5c0.4,0.9,0.4,2-0.4,2.6l-4.5,4.5
	c-0.6,0.7-1.7,0.9-2.6,0.4l-3.5-2l-0.9,0.4l-1.1,3.9C88.9,105.2,88,105.9,87.1,105.9z M82.4,101.5h3l1.1-4.6l1.1-0.4
	c0.9-0.2,1.5-0.7,2.4-0.9L91,95l4.1,2.4l2.2-2.2l-2.4-4.1l0.7-1.1c0.4-0.7,0.6-1.5,0.9-2.4l0.4-1.1l4.6-1.1v-3l-4.6-1.1l-0.4-1.1
	c-0.2-0.9-0.7-1.5-0.9-2.4l-0.7-1.1l2.4-4.1l-2.2-2.2L91,72.9L90,72.3c-0.7-0.4-1.5-0.6-2.4-0.9L86.5,71l-1.1-4.6h-3L81.3,71
	l-1.1,0.4c-0.9,0.2-1.5,0.7-2.4,0.9l-1.1,0.7l-4.1-2.4l-2.2,2.2l2.4,4.1l-0.7,1.1c-0.4,0.7-0.6,1.5-0.9,2.4l-0.4,1.1l-4.6,1.1v3
	l4.6,1.1l0.4,1.1c0.2,0.9,0.7,1.5,0.9,2.4l0.7,1.1l-2.4,4.1l2.2,2.2l4.1-2.4l1.1,0.7c0.7,0.4,1.5,0.7,2.4,0.9l1.1,0.4L82.4,101.5z"
	/>
<path class="st2" d="M84,93.3c-5.2,0-9.3-4.1-9.3-9.3c0-5.2,4.1-9.3,9.3-9.3c5.2,0,9.3,4.1,9.3,9.3C93.3,89.2,89.2,93.3,84,93.3z
	 M84,79c-2.8,0-5,2.2-5,5c0,2.8,2.2,5,5,5c2.8,0,5-2.2,5-5C89,81.2,86.8,79,84,79z"/>
<path class="st2" d="M84,49.3c-1.3,0-2.2,0.9-2.2,2.2c0,1.3,0.9,2.2,2.2,2.2c16.7,0,30.3,13.6,30.3,30.3c0,16.7-13.6,30.3-30.3,30.3
	c-16.7,0-30.3-13.7-30.3-30.3c0-6.1,1.7-11.9,5.2-16.9v2.6c0,1.3,0.9,2.2,2.2,2.2s2.2-0.9,2.2-2.2V58.9H52.4c-1.3,0-2.2,0.9-2.2,2.2
	s0.9,2.2,2.2,2.2h3.9c-4.5,5.8-6.9,13.2-6.9,20.8c0,19.1,15.6,34.7,34.7,34.7c19.1,0,34.7-15.6,34.7-34.7
	C118.7,64.9,103.1,49.3,84,49.3z"/>
</svg>
