<?xml version="1.0" encoding="utf-8"?>
<!-- Generator: Adobe Illustrator 24.2.1, SVG Export Plug-In . SVG Version: 6.00 Build 0)  -->
<svg version="1.1" id="Capa_1" xmlns="http://www.w3.org/2000/svg" xmlns:xlink="http://www.w3.org/1999/xlink" x="0px" y="0px"
	 viewBox="0 0 24 24" style="enable-background:new 0 0 24 24;" xml:space="preserve">
<style type="text/css">
	.st0{clip-path:url(#SVGID_2_);}
	.st1{fill:#FF5900;}
</style>
<g>
	<defs>
		<rect id="SVGID_1_" width="24" height="24"/>
	</defs>
	<clipPath id="SVGID_2_">
		<use xlink:href="#SVGID_1_"  style="overflow:visible;"/>
	</clipPath>
	<g class="st0">
		<path class="st1" d="M12,0C5.4,0,0,5.4,0,12v5c0,1.2,1.1,2.2,2.4,2.2h1.2c0.3,0,0.6-0.1,0.8-0.4c0.2-0.2,0.4-0.5,0.4-0.8v-6.2
			c0-0.3-0.1-0.6-0.4-0.8c-0.2-0.2-0.5-0.4-0.8-0.4H2.5C3.2,6,7.2,2.4,12,2.4s8.8,3.6,9.5,8.2h-1.1c-0.3,0-0.6,0.1-0.8,0.4
			c-0.2,0.2-0.4,0.5-0.4,0.8v7.4c0,1.3-1.1,2.4-2.4,2.4h-2.4v-1.2H9.6V24h7.2c2.6,0,4.8-2.2,4.8-4.8c1.3,0,2.4-1,2.4-2.2v-5
			C24,5.4,18.6,0,12,0z"/>
	</g>
</g>
</svg>
