<?xml version="1.0" encoding="utf-8"?>
<!-- Generator: Adobe Illustrator 24.2.1, SVG Export Plug-In . SVG Version: 6.00 Build 0)  -->
<svg version="1.1" id="Capa_1" xmlns="http://www.w3.org/2000/svg" xmlns:xlink="http://www.w3.org/1999/xlink" x="0px" y="0px"
	 viewBox="0 0 24 24" style="enable-background:new 0 0 24 24;" xml:space="preserve">
<style type="text/css">
	.st0{clip-path:url(#SVGID_2_);}
	.st1{fill:#FF5900;}
</style>
<g>
	<defs>
		<rect id="SVGID_1_" width="24" height="24"/>
	</defs>
	<clipPath id="SVGID_2_">
		<use xlink:href="#SVGID_1_"  style="overflow:visible;"/>
	</clipPath>
	<g class="st0">
		<path class="st1" d="M0,5.1C0,3.9,0.9,3,2.1,3h16.2c1.2,0,2.1,0.9,2.1,2.1v10.2c0,0.6-0.2,1.1-0.6,1.5c-0.4,0.4-0.9,0.6-1.5,0.6
			H2.1c-0.6,0-1.1-0.2-1.5-0.6C0.2,16.4,0,15.9,0,15.3V5.1z M3.6,4.5v1.2c0,0.2-0.1,0.5-0.3,0.6C3.2,6.5,2.9,6.6,2.7,6.6H1.5v1.8
			h1.2c0.4,0,0.7-0.1,1-0.2c0.3-0.1,0.6-0.3,0.9-0.6c0.3-0.3,0.4-0.5,0.6-0.9c0.1-0.3,0.2-0.7,0.2-1V4.5H3.6z M10.2,13.2
			c0.7,0,1.4-0.3,1.9-0.8c0.5-0.5,0.8-1.2,0.8-1.9s-0.3-1.4-0.8-1.9c-0.5-0.5-1.2-0.8-1.9-0.8c-0.7,0-1.4,0.3-1.9,0.8
			c-0.5,0.5-0.8,1.2-0.8,1.9s0.3,1.4,0.8,1.9C8.8,12.9,9.5,13.2,10.2,13.2z M1.5,13.8h1.2c0.2,0,0.5,0.1,0.6,0.3
			c0.2,0.2,0.3,0.4,0.3,0.6v1.2h1.8v-1.2c0-0.7-0.3-1.4-0.8-1.9C4.1,12.3,3.4,12,2.7,12H1.5V13.8z M16.8,14.7c0-0.2,0.1-0.5,0.3-0.6
			c0.2-0.2,0.4-0.3,0.6-0.3h1.2V12h-1.2c-0.7,0-1.4,0.3-1.9,0.8C15.3,13.3,15,14,15,14.7v1.2h1.8V14.7z M16.8,5.7V4.5H15v1.2
			c0,0.4,0.1,0.7,0.2,1c0.1,0.3,0.3,0.6,0.6,0.9c0.5,0.5,1.2,0.8,1.9,0.8h1.2V6.6h-1.2c-0.2,0-0.5-0.1-0.6-0.3
			C16.9,6.2,16.8,5.9,16.8,5.7z"/>
		<path class="st1" d="M2.9,19.2c0.3,0.5,0.8,1,1.3,1.3C4.7,20.8,5.4,21,6,21h12.3c0.7,0,1.5-0.1,2.2-0.4c0.7-0.3,1.3-0.7,1.8-1.2
			c0.5-0.5,0.9-1.2,1.2-1.8c0.3-0.7,0.4-1.4,0.4-2.2V9c0-1.3-0.7-2.5-1.8-3.1v9.4c0,1-0.4,2-1.1,2.8c-0.7,0.7-1.7,1.1-2.8,1.1H2.9z"
			/>
	</g>
</g>
</svg>
