<?xml version="1.0" encoding="utf-8"?>
<!-- Generator: Adobe Illustrator 24.2.1, SVG Export Plug-In . SVG Version: 6.00 Build 0)  -->
<svg version="1.1" id="Capa_1" xmlns="http://www.w3.org/2000/svg" xmlns:xlink="http://www.w3.org/1999/xlink" x="0px" y="0px"
	 viewBox="0 0 24 24" style="enable-background:new 0 0 24 24;" xml:space="preserve">
<style type="text/css">
	.st0{clip-path:url(#SVGID_2_);}
	.st1{fill:#FF5900;}
</style>
<g>
	<defs>
		<rect id="SVGID_1_" width="24" height="24"/>
	</defs>
	<clipPath id="SVGID_2_">
		<use xlink:href="#SVGID_1_"  style="overflow:visible;"/>
	</clipPath>
	<g class="st0">
		<path class="st1" d="M15,15h3v3h-3V15z"/>
		<path class="st1" d="M4.5,0h15c0.1,0,0.2,0,0.3,0.1c0.1,0,0.2,0.1,0.3,0.2l3.8,4.5C24,5,24,5.1,24,5.2v2.3c0,1.3-0.6,2.5-1.5,3.4
			v12.4c0,0.2-0.1,0.4-0.2,0.5c-0.1,0.1-0.3,0.2-0.5,0.2H12v-9.8c0-0.2-0.1-0.4-0.2-0.5c-0.1-0.1-0.3-0.2-0.5-0.2h-6
			c-0.2,0-0.4,0.1-0.5,0.2c-0.1,0.1-0.2,0.3-0.2,0.5V24H2.2c-0.2,0-0.4-0.1-0.5-0.2c-0.1-0.1-0.2-0.3-0.2-0.5V10.9
			C0.6,10,0,8.8,0,7.5V5.2c0-0.2,0.1-0.3,0.2-0.5l3.8-4.5C4,0.2,4.1,0.1,4.2,0.1C4.3,0,4.4,0,4.5,0z M1.5,6v1.5
			c0,0.8,0.3,1.6,0.9,2.1c0.6,0.6,1.3,0.9,2.1,0.9s1.6-0.3,2.1-0.9c0.6-0.6,0.9-1.3,0.9-2.1V6H1.5z M9,6v1.5c0,0.8,0.3,1.6,0.9,2.1
			c0.6,0.6,1.3,0.9,2.1,0.9c0.8,0,1.6-0.3,2.1-0.9C14.7,9.1,15,8.3,15,7.5V6H9z M16.5,6v1.5c0,0.8,0.3,1.6,0.9,2.1
			c0.6,0.6,1.3,0.9,2.1,0.9c0.8,0,1.6-0.3,2.1-0.9c0.6-0.6,0.9-1.3,0.9-2.1V6H16.5z M4.9,1.5l-2.5,3h5.4l1-3H4.9z M14.7,4.5l-1-3
			h-3.4l-1,3H14.7z M16.3,4.5h5.4l-2.5-3h-3.9L16.3,4.5z M13.5,14.2v4.5c0,0.2,0.1,0.4,0.2,0.5c0.1,0.1,0.3,0.2,0.5,0.2h4.5
			c0.2,0,0.4-0.1,0.5-0.2c0.1-0.1,0.2-0.3,0.2-0.5v-4.5c0-0.2-0.1-0.4-0.2-0.5c-0.1-0.1-0.3-0.2-0.5-0.2h-4.5
			c-0.2,0-0.4,0.1-0.5,0.2C13.6,13.9,13.5,14.1,13.5,14.2z"/>
		<path class="st1" d="M10.5,24v-9H6v9H10.5z"/>
	</g>
</g>
</svg>
