<?xml version="1.0" encoding="utf-8"?>
<!-- Generator: Adobe Illustrator 24.2.1, SVG Export Plug-In . SVG Version: 6.00 Build 0)  -->
<svg version="1.1" id="Capa_1" xmlns="http://www.w3.org/2000/svg" xmlns:xlink="http://www.w3.org/1999/xlink" x="0px" y="0px"
	 viewBox="0 0 24 24" style="enable-background:new 0 0 24 24;" xml:space="preserve">
<style type="text/css">
	.st0{fill-rule:evenodd;clip-rule:evenodd;fill:#FF5900;}
</style>
<path class="st0" d="M0,1c0-0.6,0.4-1,1-1h19.1c0.3,0,0.5,0.2,0.5,0.5v2.1c0,0.4-0.3,0.7-0.7,0.7S19.3,3,19.3,2.7V1.3h-18v15.3h13.6
	c0.4,0,0.7,0.3,0.7,0.7c0,0.4-0.3,0.7-0.7,0.7H0.4C0.2,18,0,17.8,0,17.6V1z M20,8.7c0.5,0,1-0.2,1.4-0.6C21.8,7.7,22,7.2,22,6.7
	s-0.2-1-0.6-1.4C21,4.9,20.5,4.7,20,4.7s-1,0.2-1.4,0.6C18.2,5.6,18,6.1,18,6.7s0.2,1,0.6,1.4C19,8.5,19.5,8.7,20,8.7z M21.4,10
	c0.9,0,1.6,0.4,2,1c0.4,0.6,0.6,1.3,0.6,1.9c0,0.7-0.1,1.3-0.3,1.9c-0.2,0.6-0.5,1.2-1.1,1.6V23c0,0.3-0.1,0.5-0.3,0.7
	C22.2,23.9,22,24,21.7,24c-0.3,0-0.5-0.1-0.7-0.2c-0.2-0.2-0.3-0.4-0.4-0.6L19.8,18h-0.2l-1,5.2c0,0.2-0.2,0.5-0.4,0.6
	c-0.2,0.1-0.4,0.2-0.7,0.2c-0.2,0-0.5-0.1-0.6-0.3c-0.2-0.2-0.3-0.4-0.3-0.7v-9.5c-0.1,0.2-0.3,0.4-0.4,0.6l-0.1,0.1l0,0l0,0
	c-0.1,0.1-0.2,0.3-0.4,0.3c-0.1,0.1-0.3,0.1-0.5,0.1H12c-0.3,0-0.5-0.1-0.7-0.3c-0.2-0.2-0.3-0.4-0.3-0.7c0-0.3,0.1-0.5,0.3-0.7
	c0.2-0.2,0.4-0.3,0.7-0.3h2.8c0.2-0.3,0.4-0.6,0.6-0.9c0.2-0.3,0.5-0.7,0.7-1c0.1-0.1,0.2-0.3,0.4-0.4c0.1-0.1,0.1-0.1,0.3-0.2
	c0.2-0.1,0.4-0.2,0.6-0.2L21.4,10z"/>
</svg>
