<?xml version="1.0" encoding="utf-8"?>
<!-- Generator: Adobe Illustrator 24.2.1, SVG Export Plug-In . SVG Version: 6.00 Build 0)  -->
<svg version="1.1" id="Capa_1" xmlns="http://www.w3.org/2000/svg" xmlns:xlink="http://www.w3.org/1999/xlink" x="0px" y="0px"
	 viewBox="0 0 24 24" style="enable-background:new 0 0 24 24;" xml:space="preserve">
<style type="text/css">
	.st0{fill:#FF5900;}
</style>
<path class="st0" d="M21.4,11.4l-8.8-8.8C12.2,2.2,11.7,2,11.2,2H4C2.9,2,2,2.9,2,4v7.2c0,0.5,0.2,1,0.6,1.4l8.8,8.8
	c0.8,0.8,2.1,0.8,2.8,0l7.2-7.2C22.2,13.5,22.2,12.2,21.4,11.4z M6.5,8C5.7,8,5,7.3,5,6.5S5.7,5,6.5,5S8,5.7,8,6.5S7.3,8,6.5,8z"/>
</svg>
