<?xml version="1.0" encoding="utf-8"?>
<!-- Generator: Adobe Illustrator 24.2.1, SVG Export Plug-In . SVG Version: 6.00 Build 0)  -->
<svg version="1.1" id="Capa_1" xmlns="http://www.w3.org/2000/svg" xmlns:xlink="http://www.w3.org/1999/xlink" x="0px" y="0px"
	 viewBox="0 0 168 168" style="enable-background:new 0 0 168 168;" xml:space="preserve">
<style type="text/css">
	.st0{fill:#090446;}
	.st1{fill:#FFFFFF;fill-opacity:0.34;}
	.st2{fill:#FFFFFF;}
</style>
<circle class="st0" cx="84" cy="84" r="84"/>
<g>
	<path class="st1" d="M93.8,64.5h-4.9c0-3.2-1.3-6.3-3.6-8.6c-2.3-2.3-5.4-3.6-8.6-3.6s-6.3,1.3-8.6,3.6c-2.3,2.3-3.6,5.4-3.6,8.6
		h-4.9c0-4.5,1.8-8.9,5-12.1c3.2-3.2,7.5-5,12.1-5s8.9,1.8,12.1,5C92,55.6,93.8,60,93.8,64.5z"/>
	<path class="st1" d="M105.9,81.6c-1.3,0-2.5,0.3-3.6,1c-0.7-1-1.6-1.9-2.6-2.5c-1.1-0.6-2.3-0.9-3.5-0.9c-1.3,0-2.5,0.3-3.6,1
		c-0.9-1.4-2.2-2.4-3.8-3c-1.6-0.5-3.3-0.5-4.8,0V64.5c0-1.9-0.8-3.8-2.1-5.2c-1.4-1.4-3.2-2.1-5.2-2.1c-1.9,0-3.8,0.8-5.2,2.1
		c-1.4,1.4-2.1,3.2-2.1,5.2v27.1l-5.4-3.7c-1.2-0.9-2.8-1.4-4.3-1.4c-1.5,0-2.9,0.4-4.1,1.2c-1.2,0.8-2.1,2-2.7,3.3
		c-0.6,1.3-0.7,2.8-0.4,4.2c0.3,1.4,1,2.7,2,3.7L74,116.7c2.8,2.5,6.3,3.8,10,3.8h12.2c4.5,0,8.9-1.8,12.1-5c3.2-3.2,5-7.5,5-12.1
		V88.9c0-1.9-0.8-3.8-2.1-5.2C109.7,82.3,107.9,81.6,105.9,81.6z M108.4,103.5c0,3.2-1.3,6.3-3.6,8.6c-2.3,2.3-5.4,3.6-8.6,3.6H84
		c-2.5,0-4.9-0.8-6.7-2.4L57.9,95.5c-0.5-0.5-0.7-1.1-0.7-1.7c0-0.5,0.1-0.9,0.4-1.3c0.2-0.4,0.6-0.7,1-0.9c0.4-0.2,0.9-0.3,1.3-0.2
		c0.5,0,0.9,0.2,1.2,0.5l13.2,9V64.5c0-0.6,0.3-1.3,0.7-1.7s1.1-0.7,1.7-0.7c0.6,0,1.3,0.3,1.7,0.7c0.5,0.5,0.7,1.1,0.7,1.7v26.8H84
		V84c0-0.6,0.3-1.3,0.7-1.7s1.1-0.7,1.7-0.7c0.6,0,1.3,0.3,1.7,0.7c0.5,0.5,0.7,1.1,0.7,1.7v7.3h4.9v-4.9c0-0.6,0.3-1.3,0.7-1.7
		s1.1-0.7,1.7-0.7c0.6,0,1.3,0.3,1.7,0.7c0.5,0.5,0.7,1.1,0.7,1.7v4.9h4.9v-2.4c0-0.6,0.3-1.3,0.7-1.7c0.5-0.5,1.1-0.7,1.7-0.7
		c0.6,0,1.3,0.3,1.7,0.7c0.5,0.5,0.7,1.1,0.7,1.7V103.5z"/>
</g>
<path class="st2" d="M93.8,64.5h-4.9c0-3.2-1.3-6.3-3.6-8.6c-2.3-2.3-5.4-3.6-8.6-3.6s-6.3,1.3-8.6,3.6c-2.3,2.3-3.6,5.4-3.6,8.6
	h-4.9c0-4.5,1.8-8.9,5-12.1c3.2-3.2,7.5-5,12.1-5s8.9,1.8,12.1,5C92,55.6,93.8,60,93.8,64.5z"/>
<path class="st2" d="M105.9,81.6c-1.3,0-2.5,0.3-3.6,1c-0.7-1-1.6-1.9-2.6-2.5c-1.1-0.6-2.3-0.9-3.5-0.9c-1.3,0-2.5,0.3-3.6,1
	c-0.9-1.4-2.2-2.4-3.8-3c-1.6-0.5-3.3-0.5-4.8,0V64.5c0-1.9-0.8-3.8-2.1-5.2c-1.4-1.4-3.2-2.1-5.2-2.1c-1.9,0-3.8,0.8-5.2,2.1
	c-1.4,1.4-2.1,3.2-2.1,5.2v27.1l-5.4-3.7c-1.2-0.9-2.8-1.4-4.3-1.4c-1.5,0-2.9,0.4-4.1,1.2c-1.2,0.8-2.1,2-2.7,3.3
	c-0.6,1.3-0.7,2.8-0.4,4.2c0.3,1.4,1,2.7,2,3.7L74,116.7c2.8,2.5,6.3,3.8,10,3.8h12.2c4.5,0,8.9-1.8,12.1-5c3.2-3.2,5-7.5,5-12.1
	V88.9c0-1.9-0.8-3.8-2.1-5.2C109.7,82.3,107.9,81.6,105.9,81.6z M108.4,103.5c0,3.2-1.3,6.3-3.6,8.6c-2.3,2.3-5.4,3.6-8.6,3.6H84
	c-2.5,0-4.9-0.8-6.7-2.4L57.9,95.5c-0.5-0.5-0.7-1.1-0.7-1.7c0-0.5,0.1-0.9,0.4-1.3c0.2-0.4,0.6-0.7,1-0.9c0.4-0.2,0.9-0.3,1.3-0.2
	c0.5,0,0.9,0.2,1.2,0.5l13.2,9V64.5c0-0.6,0.3-1.3,0.7-1.7s1.1-0.7,1.7-0.7c0.6,0,1.3,0.3,1.7,0.7c0.5,0.5,0.7,1.1,0.7,1.7v26.8H84
	V84c0-0.6,0.3-1.3,0.7-1.7s1.1-0.7,1.7-0.7c0.6,0,1.3,0.3,1.7,0.7c0.5,0.5,0.7,1.1,0.7,1.7v7.3h4.9v-4.9c0-0.6,0.3-1.3,0.7-1.7
	s1.1-0.7,1.7-0.7c0.6,0,1.3,0.3,1.7,0.7c0.5,0.5,0.7,1.1,0.7,1.7v4.9h4.9v-2.4c0-0.6,0.3-1.3,0.7-1.7c0.5-0.5,1.1-0.7,1.7-0.7
	c0.6,0,1.3,0.3,1.7,0.7c0.5,0.5,0.7,1.1,0.7,1.7V103.5z"/>
</svg>
