<?xml version="1.0" encoding="utf-8"?>
<!-- Generator: Adobe Illustrator 24.2.1, SVG Export Plug-In . SVG Version: 6.00 Build 0)  -->
<svg version="1.1" id="Capa_1" xmlns="http://www.w3.org/2000/svg" xmlns:xlink="http://www.w3.org/1999/xlink" x="0px" y="0px"
	 viewBox="0 0 24 24" style="enable-background:new 0 0 24 24;" xml:space="preserve">
<style type="text/css">
	.st0{fill-rule:evenodd;clip-rule:evenodd;fill:#1BA80F;}
</style>
<path class="st0" d="M0,12c0-3.2,1.3-6.2,3.5-8.5S8.8,0,12,0s6.2,1.3,8.5,3.5C22.7,5.8,24,8.8,24,12s-1.3,6.2-3.5,8.5
	C18.2,22.7,15.2,24,12,24s-6.2-1.3-8.5-3.5C1.3,18.2,0,15.2,0,12z M11.3,17.1C11.3,17.1,11.3,17.1,11.3,17.1l6.4-8
	C18,8.8,17.9,8.3,17.6,8c-0.3-0.3-0.8-0.2-1.1,0.1l-5.4,6.7l-3.6-3c-0.3-0.3-0.8-0.2-1.1,0.1c-0.3,0.3-0.2,0.8,0.1,1.1L11.3,17.1z"
	/>
</svg>
