<?xml version="1.0" encoding="utf-8"?>
<!-- Generator: Adobe Illustrator 24.2.1, SVG Export Plug-In . SVG Version: 6.00 Build 0)  -->
<svg version="1.1" id="Capa_1" xmlns="http://www.w3.org/2000/svg" xmlns:xlink="http://www.w3.org/1999/xlink" x="0px" y="0px"
	 viewBox="0 0 168 168" style="enable-background:new 0 0 168 168;" xml:space="preserve">
<style type="text/css">
	.st0{fill:#090446;}
	.st1{fill:#FFFFFF;fill-opacity:0.34;}
	.st2{fill:#FFFFFF;}
</style>
<circle class="st0" cx="84" cy="84" r="84"/>
<g>
	<path class="st1" d="M106.7,78.8h-5.2V68.4c0-10.1-8.1-18.2-18.2-18.2s-18.2,8.1-18.2,18.2v10.4h-5.2V68.4
		c0-13,10.4-23.4,23.4-23.4s23.4,10.4,23.4,23.4V78.8z"/>
	<path class="st1" d="M104.1,123H62.5c-4.4,0-7.8-3.4-7.8-7.8V84c0-4.4,3.4-7.8,7.8-7.8h41.6c4.4,0,7.8,3.4,7.8,7.8v31.2
		C111.9,119.6,108.6,123,104.1,123z M62.5,81.4c-1.6,0-2.6,1-2.6,2.6v31.2c0,1.6,1,2.6,2.6,2.6h41.6c1.6,0,2.6-1,2.6-2.6V84
		c0-1.6-1-2.6-2.6-2.6H62.5z"/>
	<path class="st1" d="M83.4,97c2.9,0,5.2-2.3,5.2-5.2s-2.3-5.2-5.2-5.2c-2.9,0-5.2,2.3-5.2,5.2S80.5,97,83.4,97z"/>
	<path class="st1" d="M84.6,91.8H82l-2.6,15.6h7.8L84.6,91.8z"/>
</g>
<path class="st2" d="M106.7,78.8h-5.2V68.4c0-10.1-8.1-18.2-18.2-18.2s-18.2,8.1-18.2,18.2v10.4h-5.2V68.4c0-13,10.4-23.4,23.4-23.4
	s23.4,10.4,23.4,23.4V78.8z"/>
<path class="st2" d="M104.1,123H62.5c-4.4,0-7.8-3.4-7.8-7.8V84c0-4.4,3.4-7.8,7.8-7.8h41.6c4.4,0,7.8,3.4,7.8,7.8v31.2
	C111.9,119.6,108.6,123,104.1,123z M62.5,81.4c-1.6,0-2.6,1-2.6,2.6v31.2c0,1.6,1,2.6,2.6,2.6h41.6c1.6,0,2.6-1,2.6-2.6V84
	c0-1.6-1-2.6-2.6-2.6H62.5z"/>
<path class="st2" d="M83.4,97c2.9,0,5.2-2.3,5.2-5.2s-2.3-5.2-5.2-5.2c-2.9,0-5.2,2.3-5.2,5.2S80.5,97,83.4,97z"/>
<path class="st2" d="M84.6,91.8H82l-2.6,15.6h7.8L84.6,91.8z"/>
</svg>
