<?xml version="1.0" encoding="utf-8"?>
<!-- Generator: Adobe Illustrator 24.2.1, SVG Export Plug-In . SVG Version: 6.00 Build 0)  -->
<svg version="1.1" id="Capa_1" xmlns="http://www.w3.org/2000/svg" xmlns:xlink="http://www.w3.org/1999/xlink" x="0px" y="0px"
	 viewBox="0 0 80 80" style="enable-background:new 0 0 80 80;" xml:space="preserve">
<style type="text/css">
	.st0{clip-path:url(#SVGID_2_);}
	.st1{fill:url(#SVGID_3_);}
</style>
<g>
	<g>
		<defs>
			<rect id="SVGID_1_" width="80" height="80"/>
		</defs>
		<clipPath id="SVGID_2_">
			<use xlink:href="#SVGID_1_"  style="overflow:visible;"/>
		</clipPath>
		<g class="st0">
			
				<linearGradient id="SVGID_3_" gradientUnits="userSpaceOnUse" x1="1.421" y1="79.6669" x2="78.181" y2="-0.2675" gradientTransform="matrix(1 0 0 -1 0 79.8898)">
				<stop  offset="0" style="stop-color:#FF5900"/>
				<stop  offset="1" style="stop-color:#FE8600"/>
				<stop  offset="1" style="stop-color:#FE8600"/>
			</linearGradient>
			<path class="st1" d="M80,26.9l-3.4,19.2c-0.4,2.1-2.1,3.4-4.1,3.4H23.6l-1,5.5h46.6c2.5,0.2,4.1,1.9,4.1,4.1
				c-0.2,2.4-1.9,4.1-4.1,4.1H17.7c-2.8-0.3-4.5-2.5-4.1-4.9l2.2-12l-3.4-33.7l-9.5-3c-2.3-0.9-3.3-3-2.7-5.2
				c0.9-2.3,3.1-3.3,5.2-2.7l12.2,3.9c1.6,0.6,2.6,2,2.8,3.5l0.7,6.7L76.3,22C78.9,22.6,80.3,24.6,80,26.9z M30.4,72.1
				c0,3.5-2.8,6.3-6.3,6.3c-3.5,0-6.3-2.8-6.3-6.3c0-3.5,2.8-6.3,6.3-6.3C27.5,65.7,30.4,68.6,30.4,72.1z M68.2,72.1
				c0,3.5-2.8,6.3-6.3,6.3c-3.5,0-6.3-2.8-6.3-6.3c0-3.5,2.8-6.3,6.3-6.3C65.3,65.7,68.2,68.6,68.2,72.1z"/>
		</g>
	</g>
</g>
</svg>
