<?xml version="1.0" encoding="utf-8"?>
<!-- Generator: Adobe Illustrator 24.2.1, SVG Export Plug-In . SVG Version: 6.00 Build 0)  -->
<svg version="1.1" id="Capa_1" xmlns="http://www.w3.org/2000/svg" xmlns:xlink="http://www.w3.org/1999/xlink" x="0px" y="0px"
	 viewBox="0 0 80 80" style="enable-background:new 0 0 80 80;" xml:space="preserve">
<style type="text/css">
	.st0{fill:#FFFFFF;}
</style>
<g>
	<path class="st0" d="M10.5,27c0-1.7,1.3-3,3-3h6.6c1.7,0,3,1.3,3,3v50c0,1.7-1.3,3-3,3h-6.6c-1.7,0-3-1.3-3-3V27z M34.1,3
		c0-1.7,1.3-3,3-3h5.8c1.7,0,3,1.3,3,3v74c0,1.7-1.3,3-3,3h-5.8c-1.7,0-3-1.3-3-3V3z M57.7,48.7c0-1.7,1.3-3,3-3h5.8
		c1.7,0,3,1.3,3,3V77c0,1.7-1.3,3-3,3h-5.8c-1.7,0-3-1.3-3-3V48.7z"/>
</g>
</svg>
