<?xml version="1.0" encoding="utf-8"?>
<!-- Generator: Adobe Illustrator 24.2.1, SVG Export Plug-In . SVG Version: 6.00 Build 0)  -->
<svg version="1.1" id="Capa_1" xmlns="http://www.w3.org/2000/svg" xmlns:xlink="http://www.w3.org/1999/xlink" x="0px" y="0px"
	 viewBox="0 0 80 80" style="enable-background:new 0 0 80 80;" xml:space="preserve">
<style type="text/css">
	.st0{fill:#FFFFFF;}
	.st1{clip-path:url(#SVGID_2_);fill-rule:evenodd;clip-rule:evenodd;fill:#FFFFFF;}
	.st2{clip-path:url(#SVGID_4_);fill-rule:evenodd;clip-rule:evenodd;fill:#FFFFFF;}
</style>
<g>
	<g>
		<path class="st0" d="M74.1,55.5c-0.4,0-0.8-0.2-1.1-0.5L58.5,39L44,55c-0.6,0.6-1.5,0.7-2.1,0.1c-0.6-0.6-0.7-1.5-0.1-2.1
			l15.6-17.2c0.6-0.6,1.7-0.6,2.2,0L75.2,53c0.6,0.6,0.5,1.6-0.1,2.1C74.8,55.4,74.5,55.5,74.1,55.5z"/>
	</g>
	<g>
		<path class="st0" d="M58.5,77.6c-0.8,0-1.5-0.7-1.5-1.5V36.8c0-0.8,0.7-1.5,1.5-1.5S60,36,60,36.8v39.3
			C60,76.9,59.3,77.6,58.5,77.6z"/>
	</g>
	<g>
		<g>
			<defs>
				<path id="SVGID_1_" d="M31.6,2.8C16.9,2.8,4.9,14.3,4.9,28.4c0,14.2,12,25.6,26.7,25.6c2.3,0,4.6-0.3,6.8-0.8l17.4-19.4
					c0.3-0.3,0.7-0.5,1.1-0.5c0.1,0,0.1,0,0.2,0c0.2,0,0.5,0.1,0.6,0.2c0.4-1.7,0.5-3.4,0.5-5.1C58.3,14.3,46.3,2.8,31.6,2.8z
					 M55.4,38.7v1.2c-2.4,4.6-6.2,8.4-10.8,10.9L55.4,38.7z M35.4,44v4.9h-7.1V44c-4.6-0.9-8.4-3.7-8.7-8.7h5.2
					c0.3,2.7,2.2,4.8,7.1,4.8c5.2,0,6.4-2.5,6.4-4.1c0-2.1-1.2-4.1-7.1-5.5C24.5,29,20,26.4,20,21.1c0-4.4,3.7-7.3,8.3-8.2V8h7.1v5
					c5,1.2,7.4,4.8,7.6,8.7h-5.2c-0.1-2.8-1.7-4.8-5.9-4.8c-4,0-6.4,1.7-6.4,4.2c0,2.2,1.7,3.6,7.1,4.9s11.1,3.6,11.1,10
					C43.7,40.6,40,43.2,35.4,44z"/>
			</defs>
			<use xlink:href="#SVGID_1_"  style="overflow:visible;fill-rule:evenodd;clip-rule:evenodd;fill:#FFFFFF;"/>
			<clipPath id="SVGID_2_">
				<use xlink:href="#SVGID_1_"  style="overflow:visible;"/>
			</clipPath>
			<rect x="19.6" y="8" class="st1" width="24.1" height="0.4"/>
			<rect x="19.6" y="8.4" class="st1" width="24.1" height="1.1"/>
			<rect x="19.6" y="9.5" class="st1" width="24.1" height="1.1"/>
			<rect x="19.6" y="10.6" class="st1" width="24.1" height="1.1"/>
			<rect x="19.6" y="11.7" class="st1" width="24.1" height="1.1"/>
			<rect x="19.6" y="12.8" class="st1" width="24.1" height="1.1"/>
			<rect x="19.6" y="13.9" class="st1" width="24.1" height="1.1"/>
			<rect x="19.6" y="15" class="st1" width="24.1" height="1.1"/>
			<rect x="19.6" y="16.2" class="st1" width="24.1" height="1.1"/>
			<rect x="19.6" y="17.3" class="st1" width="24.1" height="1.1"/>
			<rect x="19.6" y="18.4" class="st1" width="24.1" height="1.1"/>
			<rect x="19.6" y="19.5" class="st1" width="24.1" height="1.1"/>
			<rect x="19.6" y="20.6" class="st1" width="24.1" height="1.1"/>
			<rect x="19.6" y="21.7" class="st1" width="24.1" height="1.1"/>
			<rect x="19.6" y="22.8" class="st1" width="24.1" height="1.1"/>
			<rect x="19.6" y="23.9" class="st1" width="24.1" height="1.1"/>
			<rect x="19.6" y="25.1" class="st1" width="24.1" height="1.1"/>
			<rect x="19.6" y="26.2" class="st1" width="24.1" height="1.1"/>
			<rect x="19.6" y="27.3" class="st1" width="24.1" height="1.1"/>
			<rect x="19.6" y="28.4" class="st1" width="24.1" height="1.1"/>
			<rect x="19.6" y="29.5" class="st1" width="24.1" height="1.1"/>
			<rect x="19.6" y="30.6" class="st1" width="24.1" height="1.1"/>
			<rect x="19.6" y="31.7" class="st1" width="24.1" height="1.1"/>
			<rect x="19.6" y="32.9" class="st1" width="24.1" height="1.1"/>
			<rect x="19.6" y="34" class="st1" width="24.1" height="1.1"/>
			<rect x="19.6" y="35.1" class="st1" width="24.1" height="1.1"/>
			<rect x="19.6" y="36.2" class="st1" width="24.1" height="1.1"/>
			<rect x="19.6" y="37.3" class="st1" width="24.1" height="1.1"/>
			<rect x="19.6" y="38.4" class="st1" width="24.1" height="1.1"/>
			<rect x="19.6" y="39.5" class="st1" width="24.1" height="1.1"/>
			<rect x="19.6" y="40.6" class="st1" width="24.1" height="1.1"/>
			<rect x="19.6" y="41.8" class="st1" width="24.1" height="1.1"/>
			<rect x="19.6" y="42.9" class="st1" width="24.1" height="1.1"/>
			<rect x="19.6" y="44" class="st1" width="24.1" height="1.1"/>
			<rect x="19.6" y="45.1" class="st1" width="24.1" height="1.1"/>
			<rect x="19.6" y="46.2" class="st1" width="24.1" height="1.1"/>
			<rect x="19.6" y="47.3" class="st1" width="24.1" height="1.1"/>
			<rect x="19.6" y="48.4" class="st1" width="24.1" height="0.5"/>
			<rect x="44.6" y="38.7" class="st1" width="10.8" height="0.8"/>
			<rect x="44.6" y="39.5" class="st1" width="10.8" height="1.1"/>
			<rect x="44.6" y="40.6" class="st1" width="10.8" height="1.1"/>
			<rect x="44.6" y="41.8" class="st1" width="10.8" height="1.1"/>
			<rect x="44.6" y="42.9" class="st1" width="10.8" height="1.1"/>
			<rect x="44.6" y="44" class="st1" width="10.8" height="1.1"/>
			<rect x="44.6" y="45.1" class="st1" width="10.8" height="1.1"/>
			<rect x="44.6" y="46.2" class="st1" width="10.8" height="1.1"/>
			<rect x="44.6" y="47.3" class="st1" width="10.8" height="1.1"/>
			<rect x="44.6" y="48.4" class="st1" width="10.8" height="1.1"/>
			<rect x="44.6" y="49.5" class="st1" width="10.8" height="1.1"/>
			<rect x="44.6" y="50.7" class="st1" width="10.8" height="0.1"/>
			<path class="st1" d="M58.3,2.8H4.9H58.3z"/>
			<rect x="4.9" y="2.8" class="st1" width="53.4" height="1.1"/>
			<rect x="4.9" y="3.9" class="st1" width="53.4" height="1.1"/>
			<rect x="4.9" y="5" class="st1" width="53.4" height="1.1"/>
			<rect x="4.9" y="6.1" class="st1" width="53.4" height="1.1"/>
			<rect x="4.9" y="7.3" class="st1" width="53.4" height="1.1"/>
			<rect x="4.9" y="8.4" class="st1" width="53.4" height="1.1"/>
			<rect x="4.9" y="9.5" class="st1" width="53.4" height="1.1"/>
			<rect x="4.9" y="10.6" class="st1" width="53.4" height="1.1"/>
			<rect x="4.9" y="11.7" class="st1" width="53.4" height="1.1"/>
			<rect x="4.9" y="12.8" class="st1" width="53.4" height="1.1"/>
			<rect x="4.9" y="13.9" class="st1" width="53.4" height="1.1"/>
			<rect x="4.9" y="15" class="st1" width="53.4" height="1.1"/>
			<rect x="4.9" y="16.2" class="st1" width="53.4" height="1.1"/>
			<rect x="4.9" y="17.3" class="st1" width="53.4" height="1.1"/>
			<rect x="4.9" y="18.4" class="st1" width="53.4" height="1.1"/>
			<rect x="4.9" y="19.5" class="st1" width="53.4" height="1.1"/>
			<rect x="4.9" y="20.6" class="st1" width="53.4" height="1.1"/>
			<rect x="4.9" y="21.7" class="st1" width="53.4" height="1.1"/>
			<rect x="4.9" y="22.8" class="st1" width="53.4" height="1.1"/>
			<rect x="4.9" y="23.9" class="st1" width="53.4" height="1.1"/>
			<rect x="4.9" y="25.1" class="st1" width="53.4" height="1.1"/>
			<rect x="4.9" y="26.2" class="st1" width="53.4" height="1.1"/>
			<rect x="4.9" y="27.3" class="st1" width="53.4" height="1.1"/>
			<rect x="4.9" y="28.4" class="st1" width="53.4" height="1.1"/>
			<rect x="4.9" y="29.5" class="st1" width="53.4" height="1.1"/>
			<rect x="4.9" y="30.6" class="st1" width="53.4" height="1.1"/>
			<rect x="4.9" y="31.7" class="st1" width="53.4" height="1.1"/>
			<rect x="4.9" y="32.9" class="st1" width="53.4" height="1.1"/>
			<rect x="4.9" y="34" class="st1" width="53.4" height="1.1"/>
			<rect x="4.9" y="35.1" class="st1" width="53.4" height="1.1"/>
			<rect x="4.9" y="36.2" class="st1" width="53.4" height="1.1"/>
			<rect x="4.9" y="37.3" class="st1" width="53.4" height="1.1"/>
			<rect x="4.9" y="38.4" class="st1" width="53.4" height="1.1"/>
			<rect x="4.9" y="39.5" class="st1" width="53.4" height="1.1"/>
			<rect x="4.9" y="40.6" class="st1" width="53.4" height="1.1"/>
			<rect x="4.9" y="41.8" class="st1" width="53.4" height="1.1"/>
			<rect x="4.9" y="42.9" class="st1" width="53.4" height="1.1"/>
			<rect x="4.9" y="44" class="st1" width="53.4" height="1.1"/>
			<rect x="4.9" y="45.1" class="st1" width="53.4" height="1.1"/>
			<rect x="4.9" y="46.2" class="st1" width="53.4" height="1.1"/>
			<rect x="4.9" y="47.3" class="st1" width="53.4" height="1.1"/>
			<rect x="4.9" y="48.4" class="st1" width="53.4" height="1.1"/>
			<rect x="4.9" y="49.5" class="st1" width="53.4" height="1.1"/>
			<rect x="4.9" y="50.7" class="st1" width="53.4" height="1.1"/>
			<rect x="4.9" y="51.8" class="st1" width="53.4" height="1.1"/>
			<rect x="4.9" y="52.9" class="st1" width="53.4" height="1.1"/>
			<path class="st1" d="M4.9,54h53.4H4.9z"/>
		</g>
	</g>
	<g>
		<path class="st0" d="M75.1,58c-0.8,0-1.6-0.3-2.2-1L59.5,42.3L46.1,57c-1.1,1.2-3,1.3-4.2,0.2c-1.2-1.1-1.3-3-0.2-4.2l15.6-17.2
			c1.1-1.3,3.3-1.3,4.4,0L77.3,53c1.1,1.2,1,3.1-0.2,4.2C76.5,57.7,75.8,58,75.1,58z"/>
	</g>
	<g>
		<path class="st0" d="M59.5,80.1c-1.7,0-3-1.3-3-3V37.8c0-1.7,1.3-3,3-3s3,1.3,3,3v39.3C62.5,78.8,61.2,80.1,59.5,80.1z"/>
	</g>
	<g>
		<g>
			<defs>
				<path id="SVGID_3_" d="M31.6,2.8C16.9,2.8,4.9,14.3,4.9,28.4c0,14.2,12,25.6,26.7,25.6c2.3,0,4.6-0.3,6.8-0.8l17.4-19.4
					c0.3-0.3,0.7-0.5,1.1-0.5c0.1,0,0.1,0,0.2,0c0.2,0,0.5,0.1,0.6,0.2c0.4-1.7,0.5-3.4,0.5-5.1C58.3,14.3,46.3,2.8,31.6,2.8z
					 M55.4,38.7v1.2c-2.4,4.6-6.2,8.4-10.8,10.9L55.4,38.7z M35.4,44v4.9h-7.1V44c-4.6-0.9-8.4-3.7-8.7-8.7h5.2
					c0.3,2.7,2.2,4.8,7.1,4.8c5.2,0,6.4-2.5,6.4-4.1c0-2.1-1.2-4.1-7.1-5.5C24.5,29,20,26.4,20,21.1c0-4.4,3.7-7.3,8.3-8.2V8h7.1v5
					c5,1.2,7.4,4.8,7.6,8.7h-5.2c-0.1-2.8-1.7-4.8-5.9-4.8c-4,0-6.4,1.7-6.4,4.2c0,2.2,1.7,3.6,7.1,4.9s11.1,3.6,11.1,10
					C43.7,40.6,40,43.2,35.4,44z"/>
			</defs>
			<use xlink:href="#SVGID_3_"  style="overflow:visible;fill-rule:evenodd;clip-rule:evenodd;fill:#FFFFFF;"/>
			<clipPath id="SVGID_4_">
				<use xlink:href="#SVGID_3_"  style="overflow:visible;"/>
			</clipPath>
			<rect x="19.6" y="8" class="st2" width="24.1" height="0.4"/>
			<rect x="19.6" y="8.4" class="st2" width="24.1" height="1.1"/>
			<rect x="19.6" y="9.5" class="st2" width="24.1" height="1.1"/>
			<rect x="19.6" y="10.6" class="st2" width="24.1" height="1.1"/>
			<rect x="19.6" y="11.7" class="st2" width="24.1" height="1.1"/>
			<rect x="19.6" y="12.8" class="st2" width="24.1" height="1.1"/>
			<rect x="19.6" y="13.9" class="st2" width="24.1" height="1.1"/>
			<rect x="19.6" y="15" class="st2" width="24.1" height="1.1"/>
			<rect x="19.6" y="16.2" class="st2" width="24.1" height="1.1"/>
			<rect x="19.6" y="17.3" class="st2" width="24.1" height="1.1"/>
			<rect x="19.6" y="18.4" class="st2" width="24.1" height="1.1"/>
			<rect x="19.6" y="19.5" class="st2" width="24.1" height="1.1"/>
			<rect x="19.6" y="20.6" class="st2" width="24.1" height="1.1"/>
			<rect x="19.6" y="21.7" class="st2" width="24.1" height="1.1"/>
			<rect x="19.6" y="22.8" class="st2" width="24.1" height="1.1"/>
			<rect x="19.6" y="23.9" class="st2" width="24.1" height="1.1"/>
			<rect x="19.6" y="25.1" class="st2" width="24.1" height="1.1"/>
			<rect x="19.6" y="26.2" class="st2" width="24.1" height="1.1"/>
			<rect x="19.6" y="27.3" class="st2" width="24.1" height="1.1"/>
			<rect x="19.6" y="28.4" class="st2" width="24.1" height="1.1"/>
			<rect x="19.6" y="29.5" class="st2" width="24.1" height="1.1"/>
			<rect x="19.6" y="30.6" class="st2" width="24.1" height="1.1"/>
			<rect x="19.6" y="31.7" class="st2" width="24.1" height="1.1"/>
			<rect x="19.6" y="32.9" class="st2" width="24.1" height="1.1"/>
			<rect x="19.6" y="34" class="st2" width="24.1" height="1.1"/>
			<rect x="19.6" y="35.1" class="st2" width="24.1" height="1.1"/>
			<rect x="19.6" y="36.2" class="st2" width="24.1" height="1.1"/>
			<rect x="19.6" y="37.3" class="st2" width="24.1" height="1.1"/>
			<rect x="19.6" y="38.4" class="st2" width="24.1" height="1.1"/>
			<rect x="19.6" y="39.5" class="st2" width="24.1" height="1.1"/>
			<rect x="19.6" y="40.6" class="st2" width="24.1" height="1.1"/>
			<rect x="19.6" y="41.8" class="st2" width="24.1" height="1.1"/>
			<rect x="19.6" y="42.9" class="st2" width="24.1" height="1.1"/>
			<rect x="19.6" y="44" class="st2" width="24.1" height="1.1"/>
			<rect x="19.6" y="45.1" class="st2" width="24.1" height="1.1"/>
			<rect x="19.6" y="46.2" class="st2" width="24.1" height="1.1"/>
			<rect x="19.6" y="47.3" class="st2" width="24.1" height="1.1"/>
			<rect x="19.6" y="48.4" class="st2" width="24.1" height="0.5"/>
			<rect x="44.6" y="38.7" class="st2" width="10.8" height="0.8"/>
			<rect x="44.6" y="39.5" class="st2" width="10.8" height="1.1"/>
			<rect x="44.6" y="40.6" class="st2" width="10.8" height="1.1"/>
			<rect x="44.6" y="41.8" class="st2" width="10.8" height="1.1"/>
			<rect x="44.6" y="42.9" class="st2" width="10.8" height="1.1"/>
			<rect x="44.6" y="44" class="st2" width="10.8" height="1.1"/>
			<rect x="44.6" y="45.1" class="st2" width="10.8" height="1.1"/>
			<rect x="44.6" y="46.2" class="st2" width="10.8" height="1.1"/>
			<rect x="44.6" y="47.3" class="st2" width="10.8" height="1.1"/>
			<rect x="44.6" y="48.4" class="st2" width="10.8" height="1.1"/>
			<rect x="44.6" y="49.5" class="st2" width="10.8" height="1.1"/>
			<rect x="44.6" y="50.7" class="st2" width="10.8" height="0.1"/>
			<path class="st2" d="M58.3,2.8H4.9H58.3z"/>
			<rect x="4.9" y="2.8" class="st2" width="53.4" height="1.1"/>
			<rect x="4.9" y="3.9" class="st2" width="53.4" height="1.1"/>
			<rect x="4.9" y="5" class="st2" width="53.4" height="1.1"/>
			<rect x="4.9" y="6.1" class="st2" width="53.4" height="1.1"/>
			<rect x="4.9" y="7.3" class="st2" width="53.4" height="1.1"/>
			<rect x="4.9" y="8.4" class="st2" width="53.4" height="1.1"/>
			<rect x="4.9" y="9.5" class="st2" width="53.4" height="1.1"/>
			<rect x="4.9" y="10.6" class="st2" width="53.4" height="1.1"/>
			<rect x="4.9" y="11.7" class="st2" width="53.4" height="1.1"/>
			<rect x="4.9" y="12.8" class="st2" width="53.4" height="1.1"/>
			<rect x="4.9" y="13.9" class="st2" width="53.4" height="1.1"/>
			<rect x="4.9" y="15" class="st2" width="53.4" height="1.1"/>
			<rect x="4.9" y="16.2" class="st2" width="53.4" height="1.1"/>
			<rect x="4.9" y="17.3" class="st2" width="53.4" height="1.1"/>
			<rect x="4.9" y="18.4" class="st2" width="53.4" height="1.1"/>
			<rect x="4.9" y="19.5" class="st2" width="53.4" height="1.1"/>
			<rect x="4.9" y="20.6" class="st2" width="53.4" height="1.1"/>
			<rect x="4.9" y="21.7" class="st2" width="53.4" height="1.1"/>
			<rect x="4.9" y="22.8" class="st2" width="53.4" height="1.1"/>
			<rect x="4.9" y="23.9" class="st2" width="53.4" height="1.1"/>
			<rect x="4.9" y="25.1" class="st2" width="53.4" height="1.1"/>
			<rect x="4.9" y="26.2" class="st2" width="53.4" height="1.1"/>
			<rect x="4.9" y="27.3" class="st2" width="53.4" height="1.1"/>
			<rect x="4.9" y="28.4" class="st2" width="53.4" height="1.1"/>
			<rect x="4.9" y="29.5" class="st2" width="53.4" height="1.1"/>
			<rect x="4.9" y="30.6" class="st2" width="53.4" height="1.1"/>
			<rect x="4.9" y="31.7" class="st2" width="53.4" height="1.1"/>
			<rect x="4.9" y="32.9" class="st2" width="53.4" height="1.1"/>
			<rect x="4.9" y="34" class="st2" width="53.4" height="1.1"/>
			<rect x="4.9" y="35.1" class="st2" width="53.4" height="1.1"/>
			<rect x="4.9" y="36.2" class="st2" width="53.4" height="1.1"/>
			<rect x="4.9" y="37.3" class="st2" width="53.4" height="1.1"/>
			<rect x="4.9" y="38.4" class="st2" width="53.4" height="1.1"/>
			<rect x="4.9" y="39.5" class="st2" width="53.4" height="1.1"/>
			<rect x="4.9" y="40.6" class="st2" width="53.4" height="1.1"/>
			<rect x="4.9" y="41.8" class="st2" width="53.4" height="1.1"/>
			<rect x="4.9" y="42.9" class="st2" width="53.4" height="1.1"/>
			<rect x="4.9" y="44" class="st2" width="53.4" height="1.1"/>
			<rect x="4.9" y="45.1" class="st2" width="53.4" height="1.1"/>
			<rect x="4.9" y="46.2" class="st2" width="53.4" height="1.1"/>
			<rect x="4.9" y="47.3" class="st2" width="53.4" height="1.1"/>
			<rect x="4.9" y="48.4" class="st2" width="53.4" height="1.1"/>
			<rect x="4.9" y="49.5" class="st2" width="53.4" height="1.1"/>
			<rect x="4.9" y="50.7" class="st2" width="53.4" height="1.1"/>
			<rect x="4.9" y="51.8" class="st2" width="53.4" height="1.1"/>
			<rect x="4.9" y="52.9" class="st2" width="53.4" height="1.1"/>
			<path class="st2" d="M4.9,54h53.4H4.9z"/>
		</g>
	</g>
</g>
</svg>
