<?xml version="1.0" encoding="utf-8"?>
<!-- Generator: Adobe Illustrator 24.2.1, SVG Export Plug-In . SVG Version: 6.00 Build 0)  -->
<svg version="1.1" id="Capa_1" xmlns="http://www.w3.org/2000/svg" xmlns:xlink="http://www.w3.org/1999/xlink" x="0px" y="0px"
	 viewBox="0 0 88 80" style="enable-background:new 0 0 88 80;" xml:space="preserve">
<style type="text/css">
	.st0{fill-rule:evenodd;clip-rule:evenodd;fill:url(#SVGID_1_);}
	.st1{fill-rule:evenodd;clip-rule:evenodd;fill:url(#SVGID_2_);}
	.st2{fill-rule:evenodd;clip-rule:evenodd;fill:url(#SVGID_3_);}
	.st3{fill:url(#SVGID_4_);}
	.st4{fill-rule:evenodd;clip-rule:evenodd;fill:url(#SVGID_5_);}
	.st5{fill:url(#SVGID_6_);}
	.st6{fill-rule:evenodd;clip-rule:evenodd;fill:url(#SVGID_7_);}
</style>
<g>
	
		<linearGradient id="SVGID_1_" gradientUnits="userSpaceOnUse" x1="26.889" y1="35.4946" x2="26.889" y2="-0.1101" gradientTransform="matrix(1 0 0 -1 0 79.8898)">
		<stop  offset="0" style="stop-color:#FF5900"/>
		<stop  offset="1" style="stop-color:#FE8700"/>
	</linearGradient>
	<path class="st0" d="M41.6,49.3c-1.1,1.6-2.6,2.8-4.2,3.4s-3.4,0.5-5.1-0.1l-20-8.1v22.2L41.6,80V49.3z"/>
	
		<linearGradient id="SVGID_2_" gradientUnits="userSpaceOnUse" x1="61.1097" y1="35.4946" x2="61.1097" y2="-0.1101" gradientTransform="matrix(1 0 0 -1 0 79.8898)">
		<stop  offset="0" style="stop-color:#FF5900"/>
		<stop  offset="1" style="stop-color:#FE8700"/>
	</linearGradient>
	<path class="st1" d="M75.8,66.6L46.4,80V49.3c1.1,1.6,2.6,2.8,4.2,3.4s3.4,0.5,5.1-0.1l20-8.1V66.6z M66.8,60.5
		c0.6-0.2,1.1-0.8,1.4-1.5s0.3-1.5,0.1-2.3c-0.2-0.7-0.6-1.4-1.2-1.7c-0.6-0.4-1.3-0.4-1.9-0.2l-11,4.4c-0.6,0.2-1.1,0.8-1.4,1.5
		c-0.3,0.7-0.3,1.5-0.1,2.3c0.2,0.7,0.6,1.4,1.2,1.7c0.6,0.4,1.3,0.4,1.9,0.2L66.8,60.5z"/>
	
		<linearGradient id="SVGID_3_" gradientUnits="userSpaceOnUse" x1="44.0144" y1="79.8896" x2="44.0144" y2="60.6405" gradientTransform="matrix(1 0 0 -1 0 79.8898)">
		<stop  offset="0" style="stop-color:#FF5900"/>
		<stop  offset="1" style="stop-color:#FE8700"/>
	</linearGradient>
	<path class="st2" d="M43.2,0.2c0.5-0.2,1.1-0.2,1.6,0l31.8,13.3c0.3,0.1,0.6,0.3,0.8,0.6c0.2,0.3,0.4,0.6,0.6,0.9
		c0.1,0.4,0.2,0.7,0.2,1.1c0,0.4,0,0.8-0.1,1.1c-0.1,0.4-0.3,0.7-0.5,1c-0.2,0.3-0.5,0.5-0.8,0.7c-0.3,0.2-0.6,0.3-0.9,0.3
		c-0.3,0-0.6,0-0.9-0.2l-31-13l-31,13c-0.6,0.3-1.3,0.2-1.9-0.1c-0.6-0.3-1-1-1.2-1.7C9.7,16.5,9.8,15.7,10,15
		c0.3-0.7,0.8-1.2,1.4-1.5L43.2,0.2z"/>
	
		<linearGradient id="SVGID_4_" gradientUnits="userSpaceOnUse" x1="23.2226" y1="63.6084" x2="23.2226" y2="35.4846" gradientTransform="matrix(1 0 0 -1 0 79.8898)">
		<stop  offset="0" style="stop-color:#FF5900"/>
		<stop  offset="1" style="stop-color:#FE8700"/>
	</linearGradient>
	<path class="st3" d="M35.4,44.4l-33-13.3l9.8-14.8L44,29.6L35.4,44.4z"/>
	
		<linearGradient id="SVGID_5_" gradientUnits="userSpaceOnUse" x1="23.2217" y1="66.5674" x2="23.2217" y2="32.5232" gradientTransform="matrix(1 0 0 -1 0 79.8898)">
		<stop  offset="0" style="stop-color:#FF5900"/>
		<stop  offset="1" style="stop-color:#FE8700"/>
	</linearGradient>
	<path class="st4" d="M10.3,14.4c0.3-0.5,0.7-0.8,1.2-1c0.5-0.2,1-0.2,1.5,0l31.8,13.3c0.4,0.1,0.7,0.4,0.9,0.7
		c0.3,0.3,0.5,0.7,0.6,1.2c0.1,0.4,0.1,0.9,0.1,1.4c-0.1,0.5-0.2,0.9-0.4,1.3l-8.6,14.8c-0.3,0.5-0.7,0.9-1.2,1.1
		c-0.5,0.2-1,0.2-1.5,0l-33-13.3c-0.4-0.2-0.7-0.4-1-0.8c-0.3-0.3-0.5-0.8-0.6-1.2C0,31.5,0,31,0,30.5c0.1-0.5,0.2-0.9,0.5-1.3
		L10.3,14.4L10.3,14.4z M13.1,19.8l-6.5,9.9l27.9,11.3l5.7-9.8L13.1,19.8L13.1,19.8z"/>
	
		<linearGradient id="SVGID_6_" gradientUnits="userSpaceOnUse" x1="64.7773" y1="63.6084" x2="64.7773" y2="35.4846" gradientTransform="matrix(1 0 0 -1 0 79.8898)">
		<stop  offset="0" style="stop-color:#FF5900"/>
		<stop  offset="1" style="stop-color:#FE8700"/>
	</linearGradient>
	<path class="st5" d="M52.6,44.4l33-13.3l-9.8-14.8L44,29.6L52.6,44.4z"/>
	
		<linearGradient id="SVGID_7_" gradientUnits="userSpaceOnUse" x1="64.7783" y1="66.5674" x2="64.7783" y2="32.5232" gradientTransform="matrix(1 0 0 -1 0 79.8898)">
		<stop  offset="0" style="stop-color:#FF5900"/>
		<stop  offset="1" style="stop-color:#FE8700"/>
	</linearGradient>
	<path class="st6" d="M77.7,14.4c-0.3-0.5-0.7-0.8-1.2-1c-0.5-0.2-1-0.2-1.5,0L43.2,26.8c-0.4,0.1-0.7,0.4-0.9,0.7
		c-0.3,0.3-0.5,0.7-0.6,1.2c-0.1,0.4-0.1,0.9-0.1,1.4c0.1,0.5,0.2,0.9,0.4,1.3l8.6,14.8c0.3,0.5,0.7,0.9,1.2,1.1
		c0.5,0.2,1,0.2,1.5,0l33-13.3c0.4-0.2,0.7-0.4,1-0.8c0.3-0.3,0.5-0.8,0.6-1.2C88,31.5,88,31,88,30.5c-0.1-0.5-0.2-0.9-0.5-1.3
		L77.7,14.4L77.7,14.4z M74.9,19.8l6.5,9.9L53.5,40.9l-5.7-9.8L74.9,19.8L74.9,19.8z"/>
</g>
</svg>
