<?xml version="1.0" encoding="utf-8"?>
<!-- Generator: Adobe Illustrator 24.2.1, SVG Export Plug-In . SVG Version: 6.00 Build 0)  -->
<svg version="1.1" id="Capa_1" xmlns="http://www.w3.org/2000/svg" xmlns:xlink="http://www.w3.org/1999/xlink" x="0px" y="0px"
	 viewBox="0 0 80 80" style="enable-background:new 0 0 80 80;" xml:space="preserve">
<style type="text/css">
	.st0{fill:url(#SVGID_1_);}
	.st1{fill:url(#SVGID_2_);}
	.st2{fill:url(#SVGID_3_);}
</style>
<g>
	
		<linearGradient id="SVGID_1_" gradientUnits="userSpaceOnUse" x1="40" y1="27.8898" x2="40" y2="-0.1102" gradientTransform="matrix(1 0 0 -1 0 79.8898)">
		<stop  offset="0" style="stop-color:#FF5900"/>
		<stop  offset="1" style="stop-color:#FE8700"/>
	</linearGradient>
	<path class="st0" d="M40,52C28,52,4,58.3,4,70.7V80h72v-9.3C76,58.3,52,52,40,52z"/>
	
		<linearGradient id="SVGID_2_" gradientUnits="userSpaceOnUse" x1="40" y1="79.8898" x2="40" y2="55.8898" gradientTransform="matrix(1 0 0 -1 0 79.8898)">
		<stop  offset="0" style="stop-color:#FF5900"/>
		<stop  offset="1" style="stop-color:#FE8700"/>
	</linearGradient>
	<path class="st1" d="M20.3,24h39.5c1.2,0,2.3-1.1,2.3-2.4v-0.1c0-1.3-1-2.4-2.3-2.4h-1.2c0-7.1-3.7-13.2-9.3-16.6v4.6
		c0,1.3-1,2.4-2.3,2.4c-1.3,0-2.3-1.1-2.3-2.4V0.7C43.1,0.3,41.6,0,40,0c-1.6,0-3.1,0.3-4.6,0.7v6.5c0,1.3-1,2.4-2.3,2.4
		c-1.3,0-2.3-1.1-2.3-2.4V2.6c-5.5,3.4-9.3,9.5-9.3,16.6h-1.2c-1.2,0-2.3,1.1-2.3,2.4v0.1C18,22.9,19,24,20.3,24z"/>
	
		<linearGradient id="SVGID_3_" gradientUnits="userSpaceOnUse" x1="40" y1="51.8898" x2="40" y2="37.8898" gradientTransform="matrix(1 0 0 -1 0 79.8898)">
		<stop  offset="0" style="stop-color:#FF5900"/>
		<stop  offset="1" style="stop-color:#FE8700"/>
	</linearGradient>
	<path class="st2" d="M40,42c8.7,0,15.9-6,18-14H22C24.1,36,31.3,42,40,42z"/>
</g>
</svg>
