<?xml version="1.0" encoding="utf-8"?>
<!-- Generator: Adobe Illustrator 24.2.1, SVG Export Plug-In . SVG Version: 6.00 Build 0)  -->
<svg version="1.1" id="Capa_1" xmlns="http://www.w3.org/2000/svg" xmlns:xlink="http://www.w3.org/1999/xlink" x="0px" y="0px"
	 viewBox="0 0 80 80" style="enable-background:new 0 0 80 80;" xml:space="preserve">
<style type="text/css">
	.st0{clip-path:url(#SVGID_2_);}
	.st1{fill:url(#SVGID_3_);}
</style>
<g>
	<defs>
		<rect id="SVGID_1_" width="80" height="80"/>
	</defs>
	<clipPath id="SVGID_2_">
		<use xlink:href="#SVGID_1_"  style="overflow:visible;"/>
	</clipPath>
	<g class="st0">
		
			<linearGradient id="SVGID_3_" gradientUnits="userSpaceOnUse" x1="7.069506e-02" y1="79.9604" x2="80.0717" y2="-4.234859e-02" gradientTransform="matrix(1 0 0 -1 0 79.8898)">
			<stop  offset="0" style="stop-color:#FF5900"/>
			<stop  offset="1" style="stop-color:#FE8600"/>
			<stop  offset="1" style="stop-color:#FE8600"/>
		</linearGradient>
		<path class="st1" d="M44.3,0c1.2,0,2.2,0.7,2.6,1.8l2.8,7.8c1,0.3,1.9,0.5,2.6,0.8c0.8,0.3,1.8,0.7,3.1,1.3l6.6-3.5
			C62.6,8,63.2,7.9,63.8,8c0.6,0.1,1.2,0.4,1.6,0.8l5.8,6c0.8,0.8,1,2,0.6,3L68.7,25c0.5,0.9,0.9,1.7,1.2,2.4c0.3,0.7,0.8,1.7,1.2,3
			l7.2,3.1c1.1,0.5,1.7,1.5,1.7,2.7l-0.5,8.3c0,0.5-0.2,1.1-0.6,1.5c-0.3,0.4-0.8,0.8-1.3,0.9l-6.8,2.4c-0.2,0.9-0.4,1.7-0.6,2.4
			c-0.3,1.1-0.7,2.1-1.2,3.1l3.4,7.6c0.2,0.5,0.3,1.1,0.2,1.7c-0.1,0.6-0.4,1.1-0.9,1.5l-6.5,5.8c-0.4,0.4-1,0.6-1.5,0.7
			c-0.6,0.1-1.1,0-1.7-0.3l-6.7-3.6c-1,0.6-2.1,1-3.2,1.5l-2.9,1.1L46.6,78c-0.2,0.5-0.5,1-1,1.3c-0.5,0.3-1,0.5-1.6,0.5L36.4,80
			c-0.6,0-1.1-0.1-1.6-0.5c-0.5-0.3-0.8-0.8-1.1-1.3l-3.1-8.1c-1-0.4-2.1-0.7-3.1-1.2c-0.8-0.4-1.7-0.8-2.5-1.2L17.5,71
			c-0.5,0.2-1.1,0.3-1.6,0.2c-0.5-0.1-1-0.3-1.4-0.7l-5.6-5.3c-0.4-0.4-0.7-0.9-0.8-1.5c-0.1-0.6,0-1.1,0.2-1.7l3.3-7.1
			c-0.4-0.8-0.8-1.7-1.2-2.6c-0.4-1.1-0.8-2.2-1.2-3.2L2,47c-0.6-0.2-1.1-0.5-1.4-1C0.2,45.4,0,44.8,0,44.2l0.3-7.7
			c0-0.5,0.2-1,0.5-1.4c0.3-0.4,0.7-0.8,1.1-1l7.5-3.6c0.3-1.3,0.7-2.3,0.9-3c0.4-1,0.8-1.9,1.3-2.8l-3.3-6.9
			C8,17.3,8,16.7,8.1,16.2c0.1-0.6,0.4-1.1,0.8-1.5l5.6-5.3c0.4-0.4,0.9-0.6,1.4-0.7c0.5-0.1,1.1,0,1.6,0.2l7.6,3.1
			c0.8-0.6,1.6-1,2.3-1.4c0.8-0.4,1.9-0.9,3.3-1.4l2.6-7.4c0.2-0.5,0.6-1,1-1.3c0.5-0.3,1-0.5,1.6-0.5H44.3z M40.1,28.1
			C33.4,28.1,28,33.4,28,40s5.4,11.9,12.1,11.9c6.7,0,12.1-5.3,12.1-11.9S46.8,28.1,40.1,28.1z"/>
	</g>
</g>
</svg>
