<?xml version="1.0" encoding="utf-8"?>
<!-- Generator: Adobe Illustrator 24.2.1, SVG Export Plug-In . SVG Version: 6.00 Build 0)  -->
<svg version="1.1" id="Capa_1" xmlns="http://www.w3.org/2000/svg" xmlns:xlink="http://www.w3.org/1999/xlink" x="0px" y="0px"
	 viewBox="0 0 88 80" style="enable-background:new 0 0 88 80;" xml:space="preserve">
<style type="text/css">
	.st0{clip-path:url(#SVGID_2_);fill:#FFFFFF;}
	.st1{clip-path:url(#SVGID_4_);fill-rule:evenodd;clip-rule:evenodd;fill:#FFFFFF;}
	.st2{clip-path:url(#SVGID_6_);fill:#FFFFFF;}
	.st3{clip-path:url(#SVGID_8_);fill:#FFFFFF;}
	.st4{clip-path:url(#SVGID_10_);fill-rule:evenodd;clip-rule:evenodd;fill:#FFFFFF;}
	.st5{clip-path:url(#SVGID_12_);fill:#FFFFFF;}
	.st6{clip-path:url(#SVGID_14_);fill-rule:evenodd;clip-rule:evenodd;fill:#FFFFFF;}
</style>
<g>
	<g>
		<g>
			<defs>
				<path id="SVGID_1_" d="M41.6,49.3c-1.1,1.6-2.6,2.8-4.2,3.4s-3.4,0.5-5.1-0.1l-20-8.1v22.2L41.6,80V49.3z"/>
			</defs>
			<use xlink:href="#SVGID_1_"  style="overflow:visible;fill-rule:evenodd;clip-rule:evenodd;fill:#FFFFFF;"/>
			<clipPath id="SVGID_2_">
				<use xlink:href="#SVGID_1_"  style="overflow:visible;"/>
			</clipPath>
			<rect x="12.3" y="44.5" class="st0" width="29.3" height="0.7"/>
			<rect x="12.3" y="45.2" class="st0" width="29.3" height="0.8"/>
			<rect x="12.3" y="45.9" class="st0" width="29.3" height="0.8"/>
			<rect x="12.3" y="46.7" class="st0" width="29.3" height="0.8"/>
			<rect x="12.3" y="47.5" class="st0" width="29.3" height="0.8"/>
			<rect x="12.3" y="48.3" class="st0" width="29.3" height="0.8"/>
			<rect x="12.3" y="49" class="st0" width="29.3" height="0.8"/>
			<rect x="12.3" y="49.8" class="st0" width="29.3" height="0.8"/>
			<rect x="12.3" y="50.6" class="st0" width="29.3" height="0.8"/>
			<rect x="12.3" y="51.4" class="st0" width="29.3" height="0.8"/>
			<rect x="12.3" y="52.1" class="st0" width="29.3" height="0.8"/>
			<rect x="12.3" y="52.9" class="st0" width="29.3" height="0.8"/>
			<rect x="12.3" y="53.7" class="st0" width="29.3" height="0.8"/>
			<rect x="12.3" y="54.5" class="st0" width="29.3" height="0.8"/>
			<rect x="12.3" y="55.2" class="st0" width="29.3" height="0.8"/>
			<rect x="12.3" y="56" class="st0" width="29.3" height="0.8"/>
			<rect x="12.3" y="56.8" class="st0" width="29.3" height="0.8"/>
			<rect x="12.3" y="57.6" class="st0" width="29.3" height="0.8"/>
			<rect x="12.3" y="58.3" class="st0" width="29.3" height="0.8"/>
			<rect x="12.3" y="59.1" class="st0" width="29.3" height="0.8"/>
			<rect x="12.3" y="59.9" class="st0" width="29.3" height="0.8"/>
			<rect x="12.3" y="60.6" class="st0" width="29.3" height="0.8"/>
			<rect x="12.3" y="61.4" class="st0" width="29.3" height="0.8"/>
			<rect x="12.3" y="62.2" class="st0" width="29.3" height="0.8"/>
			<rect x="12.3" y="63" class="st0" width="29.3" height="0.8"/>
			<rect x="12.3" y="63.7" class="st0" width="29.3" height="0.8"/>
			<rect x="12.3" y="64.5" class="st0" width="29.3" height="0.8"/>
			<rect x="12.3" y="65.3" class="st0" width="29.3" height="0.8"/>
			<rect x="12.3" y="66.1" class="st0" width="29.3" height="0.8"/>
			<rect x="12.3" y="66.8" class="st0" width="29.3" height="0.8"/>
			<rect x="12.3" y="67.6" class="st0" width="29.3" height="0.8"/>
			<rect x="12.3" y="68.4" class="st0" width="29.3" height="0.8"/>
			<rect x="12.3" y="69.2" class="st0" width="29.3" height="0.8"/>
			<rect x="12.3" y="69.9" class="st0" width="29.3" height="0.8"/>
			<rect x="12.3" y="70.7" class="st0" width="29.3" height="0.8"/>
			<rect x="12.3" y="71.5" class="st0" width="29.3" height="0.8"/>
			<rect x="12.3" y="72.3" class="st0" width="29.3" height="0.8"/>
			<rect x="12.3" y="73" class="st0" width="29.3" height="0.8"/>
			<rect x="12.3" y="73.8" class="st0" width="29.3" height="0.8"/>
			<rect x="12.3" y="74.6" class="st0" width="29.3" height="0.8"/>
			<rect x="12.3" y="75.4" class="st0" width="29.3" height="0.8"/>
			<rect x="12.3" y="76.1" class="st0" width="29.3" height="0.8"/>
			<rect x="12.3" y="76.9" class="st0" width="29.3" height="0.8"/>
			<rect x="12.3" y="77.7" class="st0" width="29.3" height="0.8"/>
			<rect x="12.3" y="78.5" class="st0" width="29.3" height="0.8"/>
			<rect x="12.3" y="79.2" class="st0" width="29.3" height="0.8"/>
			<rect x="12.3" y="80" class="st0" width="29.3" height="0"/>
		</g>
	</g>
	<g>
		<g>
			<defs>
				<path id="SVGID_3_" d="M75.8,66.6L46.4,80V49.3c1.1,1.6,2.6,2.8,4.2,3.4s3.4,0.5,5.1-0.1l20-8.1v22.1H75.8z M66.8,60.5
					c0.6-0.2,1.1-0.8,1.4-1.5s0.3-1.5,0.1-2.3c-0.2-0.7-0.6-1.4-1.2-1.7c-0.6-0.4-1.3-0.4-1.9-0.2l-11,4.4c-0.6,0.2-1.1,0.8-1.4,1.5
					c-0.3,0.7-0.3,1.5-0.1,2.3c0.2,0.7,0.6,1.4,1.2,1.7c0.6,0.4,1.3,0.4,1.9,0.2L66.8,60.5z"/>
			</defs>
			<use xlink:href="#SVGID_3_"  style="overflow:visible;fill-rule:evenodd;clip-rule:evenodd;fill:#FFFFFF;"/>
			<clipPath id="SVGID_4_">
				<use xlink:href="#SVGID_3_"  style="overflow:visible;"/>
			</clipPath>
			<rect x="52.5" y="54.6" class="st1" width="16" height="0.6"/>
			<rect x="52.5" y="55.2" class="st1" width="16" height="0.8"/>
			<rect x="52.5" y="56" class="st1" width="16" height="0.8"/>
			<rect x="52.5" y="56.8" class="st1" width="16" height="0.8"/>
			<rect x="52.5" y="57.6" class="st1" width="16" height="0.8"/>
			<rect x="52.5" y="58.3" class="st1" width="16" height="0.8"/>
			<rect x="52.5" y="59.1" class="st1" width="16" height="0.8"/>
			<rect x="52.5" y="59.9" class="st1" width="16" height="0.8"/>
			<rect x="52.5" y="60.6" class="st1" width="16" height="0.8"/>
			<rect x="52.5" y="61.4" class="st1" width="16" height="0.8"/>
			<rect x="52.5" y="62.2" class="st1" width="16" height="0.8"/>
			<rect x="52.5" y="63" class="st1" width="16" height="0.8"/>
			<rect x="52.5" y="63.7" class="st1" width="16" height="0.8"/>
			<rect x="52.5" y="64.5" class="st1" width="16" height="0.6"/>
			<rect x="46.4" y="44.5" class="st1" width="29.4" height="0.7"/>
			<rect x="46.4" y="45.2" class="st1" width="29.4" height="0.8"/>
			<rect x="46.4" y="45.9" class="st1" width="29.4" height="0.8"/>
			<rect x="46.4" y="46.7" class="st1" width="29.4" height="0.8"/>
			<rect x="46.4" y="47.5" class="st1" width="29.4" height="0.8"/>
			<rect x="46.4" y="48.3" class="st1" width="29.4" height="0.8"/>
			<rect x="46.4" y="49" class="st1" width="29.4" height="0.8"/>
			<rect x="46.4" y="49.8" class="st1" width="29.4" height="0.8"/>
			<rect x="46.4" y="50.6" class="st1" width="29.4" height="0.8"/>
			<rect x="46.4" y="51.4" class="st1" width="29.4" height="0.8"/>
			<rect x="46.4" y="52.1" class="st1" width="29.4" height="0.8"/>
			<rect x="46.4" y="52.9" class="st1" width="29.4" height="0.8"/>
			<rect x="46.4" y="53.7" class="st1" width="29.4" height="0.8"/>
			<rect x="46.4" y="54.5" class="st1" width="29.4" height="0.8"/>
			<rect x="46.4" y="55.2" class="st1" width="29.4" height="0.8"/>
			<rect x="46.4" y="56" class="st1" width="29.4" height="0.8"/>
			<rect x="46.4" y="56.8" class="st1" width="29.4" height="0.8"/>
			<rect x="46.4" y="57.6" class="st1" width="29.4" height="0.8"/>
			<rect x="46.4" y="58.3" class="st1" width="29.4" height="0.8"/>
			<rect x="46.4" y="59.1" class="st1" width="29.4" height="0.8"/>
			<rect x="46.4" y="59.9" class="st1" width="29.4" height="0.8"/>
			<rect x="46.4" y="60.6" class="st1" width="29.4" height="0.8"/>
			<rect x="46.4" y="61.4" class="st1" width="29.4" height="0.8"/>
			<rect x="46.4" y="62.2" class="st1" width="29.4" height="0.8"/>
			<rect x="46.4" y="63" class="st1" width="29.4" height="0.8"/>
			<rect x="46.4" y="63.7" class="st1" width="29.4" height="0.8"/>
			<rect x="46.4" y="64.5" class="st1" width="29.4" height="0.8"/>
			<rect x="46.4" y="65.3" class="st1" width="29.4" height="0.8"/>
			<rect x="46.4" y="66.1" class="st1" width="29.4" height="0.8"/>
			<rect x="46.4" y="66.8" class="st1" width="29.4" height="0.8"/>
			<rect x="46.4" y="67.6" class="st1" width="29.4" height="0.8"/>
			<rect x="46.4" y="68.4" class="st1" width="29.4" height="0.8"/>
			<rect x="46.4" y="69.2" class="st1" width="29.4" height="0.8"/>
			<rect x="46.4" y="69.9" class="st1" width="29.4" height="0.8"/>
			<rect x="46.4" y="70.7" class="st1" width="29.4" height="0.8"/>
			<rect x="46.4" y="71.5" class="st1" width="29.4" height="0.8"/>
			<rect x="46.4" y="72.3" class="st1" width="29.4" height="0.8"/>
			<rect x="46.4" y="73" class="st1" width="29.4" height="0.8"/>
			<rect x="46.4" y="73.8" class="st1" width="29.4" height="0.8"/>
			<rect x="46.4" y="74.6" class="st1" width="29.4" height="0.8"/>
			<rect x="46.4" y="75.4" class="st1" width="29.4" height="0.8"/>
			<rect x="46.4" y="76.1" class="st1" width="29.4" height="0.8"/>
			<rect x="46.4" y="76.9" class="st1" width="29.4" height="0.8"/>
			<rect x="46.4" y="77.7" class="st1" width="29.4" height="0.8"/>
			<rect x="46.4" y="78.5" class="st1" width="29.4" height="0.8"/>
			<rect x="46.4" y="79.2" class="st1" width="29.4" height="0.8"/>
			<rect x="46.4" y="80" class="st1" width="29.4" height="0"/>
		</g>
	</g>
	<g>
		<g>
			<defs>
				<path id="SVGID_5_" d="M43.2,0.2c0.5-0.2,1.1-0.2,1.6,0l31.8,13.3c0.3,0.1,0.6,0.3,0.8,0.6c0.2,0.3,0.4,0.6,0.6,0.9
					c0.1,0.4,0.2,0.7,0.2,1.1s0,0.8-0.1,1.1c-0.1,0.4-0.3,0.7-0.5,1s-0.5,0.5-0.8,0.7s-0.6,0.3-0.9,0.3s-0.6,0-0.9-0.2L44,6L13,19
					c-0.6,0.3-1.3,0.2-1.9-0.1c-0.6-0.3-1-1-1.2-1.7C9.7,16.5,9.8,15.7,10,15c0.3-0.7,0.8-1.2,1.4-1.5L43.2,0.2z"/>
			</defs>
			<use xlink:href="#SVGID_5_"  style="overflow:visible;fill-rule:evenodd;clip-rule:evenodd;fill:#FFFFFF;"/>
			<clipPath id="SVGID_6_">
				<use xlink:href="#SVGID_5_"  style="overflow:visible;"/>
			</clipPath>
			<rect x="9.7" y="0" class="st2" width="68.5" height="0"/>
			<rect x="9.7" y="0" class="st2" width="68.5" height="0.4"/>
			<rect x="9.7" y="0.4" class="st2" width="68.5" height="0.4"/>
			<rect x="9.7" y="0.8" class="st2" width="68.5" height="0.4"/>
			<rect x="9.7" y="1.3" class="st2" width="68.5" height="0.4"/>
			<rect x="9.7" y="1.7" class="st2" width="68.5" height="0.4"/>
			<rect x="9.7" y="2.1" class="st2" width="68.5" height="0.4"/>
			<rect x="9.7" y="2.5" class="st2" width="68.5" height="0.4"/>
			<rect x="9.7" y="2.9" class="st2" width="68.5" height="0.4"/>
			<rect x="9.7" y="3.3" class="st2" width="68.5" height="0.4"/>
			<rect x="9.7" y="3.8" class="st2" width="68.5" height="0.4"/>
			<rect x="9.7" y="4.2" class="st2" width="68.5" height="0.4"/>
			<rect x="9.7" y="4.6" class="st2" width="68.5" height="0.4"/>
			<rect x="9.7" y="5" class="st2" width="68.5" height="0.4"/>
			<rect x="9.7" y="5.4" class="st2" width="68.5" height="0.4"/>
			<rect x="9.7" y="5.9" class="st2" width="68.5" height="0.4"/>
			<rect x="9.7" y="6.3" class="st2" width="68.5" height="0.4"/>
			<rect x="9.7" y="6.7" class="st2" width="68.5" height="0.4"/>
			<rect x="9.7" y="7.1" class="st2" width="68.5" height="0.4"/>
			<rect x="9.7" y="7.5" class="st2" width="68.5" height="0.4"/>
			<rect x="9.7" y="8" class="st2" width="68.5" height="0.4"/>
			<rect x="9.7" y="8.4" class="st2" width="68.5" height="0.4"/>
			<rect x="9.7" y="8.8" class="st2" width="68.5" height="0.4"/>
			<rect x="9.7" y="9.2" class="st2" width="68.5" height="0.4"/>
			<rect x="9.7" y="9.6" class="st2" width="68.5" height="0.4"/>
			<rect x="9.7" y="10" class="st2" width="68.5" height="0.4"/>
			<rect x="9.7" y="10.5" class="st2" width="68.5" height="0.4"/>
			<rect x="9.7" y="10.9" class="st2" width="68.5" height="0.4"/>
			<rect x="9.7" y="11.3" class="st2" width="68.5" height="0.4"/>
			<rect x="9.7" y="11.7" class="st2" width="68.5" height="0.4"/>
			<rect x="9.7" y="12.1" class="st2" width="68.5" height="0.4"/>
			<rect x="9.7" y="12.6" class="st2" width="68.5" height="0.4"/>
			<rect x="9.7" y="13" class="st2" width="68.5" height="0.4"/>
			<rect x="9.7" y="13.4" class="st2" width="68.5" height="0.4"/>
			<rect x="9.7" y="13.8" class="st2" width="68.5" height="0.4"/>
			<rect x="9.7" y="14.2" class="st2" width="68.5" height="0.4"/>
			<rect x="9.7" y="14.6" class="st2" width="68.5" height="0.4"/>
			<rect x="9.7" y="15.1" class="st2" width="68.5" height="0.4"/>
			<rect x="9.7" y="15.5" class="st2" width="68.5" height="0.4"/>
			<rect x="9.7" y="15.9" class="st2" width="68.5" height="0.4"/>
			<rect x="9.7" y="16.3" class="st2" width="68.5" height="0.4"/>
			<rect x="9.7" y="16.7" class="st2" width="68.5" height="0.4"/>
			<rect x="9.7" y="17.2" class="st2" width="68.5" height="0.4"/>
			<rect x="9.7" y="17.6" class="st2" width="68.5" height="0.4"/>
			<rect x="9.7" y="18" class="st2" width="68.5" height="0.4"/>
			<rect x="9.7" y="18.4" class="st2" width="68.5" height="0.4"/>
			<rect x="9.7" y="18.8" class="st2" width="68.5" height="0.4"/>
			<rect x="9.7" y="19.2" class="st2" width="68.5" height="0.1"/>
		</g>
	</g>
	<g>
		<g>
			<defs>
				<path id="SVGID_7_" d="M35.4,44.4l-33-13.3l9.8-14.8L44,29.6L35.4,44.4z"/>
			</defs>
			<use xlink:href="#SVGID_7_"  style="overflow:visible;fill:#FFFFFF;"/>
			<clipPath id="SVGID_8_">
				<use xlink:href="#SVGID_7_"  style="overflow:visible;"/>
			</clipPath>
			<path class="st3" d="M44,16.3H2.4H44z"/>
			<rect x="2.4" y="16.3" class="st3" width="41.6" height="0.6"/>
			<rect x="2.4" y="16.9" class="st3" width="41.6" height="0.6"/>
			<rect x="2.4" y="17.5" class="st3" width="41.6" height="0.6"/>
			<rect x="2.4" y="18.1" class="st3" width="41.6" height="0.6"/>
			<rect x="2.4" y="18.7" class="st3" width="41.6" height="0.6"/>
			<rect x="2.4" y="19.4" class="st3" width="41.6" height="0.6"/>
			<rect x="2.4" y="20" class="st3" width="41.6" height="0.6"/>
			<rect x="2.4" y="20.6" class="st3" width="41.6" height="0.6"/>
			<rect x="2.4" y="21.2" class="st3" width="41.6" height="0.6"/>
			<rect x="2.4" y="21.8" class="st3" width="41.6" height="0.6"/>
			<rect x="2.4" y="22.4" class="st3" width="41.6" height="0.6"/>
			<rect x="2.4" y="23" class="st3" width="41.6" height="0.6"/>
			<rect x="2.4" y="23.6" class="st3" width="41.6" height="0.6"/>
			<rect x="2.4" y="24.2" class="st3" width="41.6" height="0.6"/>
			<rect x="2.4" y="24.9" class="st3" width="41.6" height="0.6"/>
			<rect x="2.4" y="25.5" class="st3" width="41.6" height="0.6"/>
			<rect x="2.4" y="26.1" class="st3" width="41.6" height="0.6"/>
			<rect x="2.4" y="26.7" class="st3" width="41.6" height="0.6"/>
			<rect x="2.4" y="27.3" class="st3" width="41.6" height="0.6"/>
			<rect x="2.4" y="27.9" class="st3" width="41.6" height="0.6"/>
			<rect x="2.4" y="28.5" class="st3" width="41.6" height="0.6"/>
			<rect x="2.4" y="29.1" class="st3" width="41.6" height="0.6"/>
			<rect x="2.4" y="29.7" class="st3" width="41.6" height="0.6"/>
			<rect x="2.4" y="30.3" class="st3" width="41.6" height="0.6"/>
			<rect x="2.4" y="31" class="st3" width="41.6" height="0.6"/>
			<rect x="2.4" y="31.6" class="st3" width="41.6" height="0.6"/>
			<rect x="2.4" y="32.2" class="st3" width="41.6" height="0.6"/>
			<rect x="2.4" y="32.8" class="st3" width="41.6" height="0.6"/>
			<rect x="2.4" y="33.4" class="st3" width="41.6" height="0.6"/>
			<rect x="2.4" y="34" class="st3" width="41.6" height="0.6"/>
			<rect x="2.4" y="34.6" class="st3" width="41.6" height="0.6"/>
			<rect x="2.4" y="35.2" class="st3" width="41.6" height="0.6"/>
			<rect x="2.4" y="35.8" class="st3" width="41.6" height="0.6"/>
			<rect x="2.4" y="36.5" class="st3" width="41.6" height="0.6"/>
			<rect x="2.4" y="37.1" class="st3" width="41.6" height="0.6"/>
			<rect x="2.4" y="37.7" class="st3" width="41.6" height="0.6"/>
			<rect x="2.4" y="38.3" class="st3" width="41.6" height="0.6"/>
			<rect x="2.4" y="38.9" class="st3" width="41.6" height="0.6"/>
			<rect x="2.4" y="39.5" class="st3" width="41.6" height="0.6"/>
			<rect x="2.4" y="40.1" class="st3" width="41.6" height="0.6"/>
			<rect x="2.4" y="40.7" class="st3" width="41.6" height="0.6"/>
			<rect x="2.4" y="41.3" class="st3" width="41.6" height="0.6"/>
			<rect x="2.4" y="42" class="st3" width="41.6" height="0.6"/>
			<rect x="2.4" y="42.6" class="st3" width="41.6" height="0.6"/>
			<rect x="2.4" y="43.2" class="st3" width="41.6" height="0.6"/>
			<rect x="2.4" y="43.8" class="st3" width="41.6" height="0.6"/>
			<path class="st3" d="M2.4,44.4H44H2.4z"/>
		</g>
	</g>
	<g>
		<g>
			<defs>
				<path id="SVGID_9_" d="M10.3,14.4c0.3-0.5,0.7-0.8,1.2-1s1-0.2,1.5,0l31.8,13.3c0.4,0.1,0.7,0.4,0.9,0.7
					c0.3,0.3,0.5,0.7,0.6,1.2c0.1,0.4,0.1,0.9,0.1,1.4c-0.1,0.5-0.2,0.9-0.4,1.3l-8.6,14.8c-0.3,0.5-0.7,0.9-1.2,1.1
					c-0.5,0.2-1,0.2-1.5,0l-33-13.3c-0.4-0.2-0.7-0.4-1-0.8c-0.3-0.3-0.5-0.8-0.6-1.2C0,31.5,0,31,0,30.5c0.1-0.5,0.2-0.9,0.5-1.3
					L10.3,14.4L10.3,14.4z M13.1,19.8l-6.5,9.9L34.5,41l5.7-9.8L13.1,19.8L13.1,19.8z"/>
			</defs>
			<use xlink:href="#SVGID_9_"  style="overflow:visible;fill-rule:evenodd;clip-rule:evenodd;fill:#FFFFFF;"/>
			<clipPath id="SVGID_10_">
				<use xlink:href="#SVGID_9_"  style="overflow:visible;"/>
			</clipPath>
			<rect x="6.6" y="19.8" class="st4" width="33.6" height="0.2"/>
			<rect x="6.6" y="20" class="st4" width="33.6" height="0.7"/>
			<rect x="6.6" y="20.7" class="st4" width="33.6" height="0.7"/>
			<rect x="6.6" y="21.5" class="st4" width="33.6" height="0.7"/>
			<rect x="6.6" y="22.2" class="st4" width="33.6" height="0.7"/>
			<rect x="6.6" y="22.9" class="st4" width="33.6" height="0.7"/>
			<rect x="6.6" y="23.7" class="st4" width="33.6" height="0.7"/>
			<rect x="6.6" y="24.4" class="st4" width="33.6" height="0.7"/>
			<rect x="6.6" y="25.2" class="st4" width="33.6" height="0.7"/>
			<rect x="6.6" y="25.9" class="st4" width="33.6" height="0.7"/>
			<rect x="6.6" y="26.6" class="st4" width="33.6" height="0.7"/>
			<rect x="6.6" y="27.4" class="st4" width="33.6" height="0.7"/>
			<rect x="6.6" y="28.1" class="st4" width="33.6" height="0.7"/>
			<rect x="6.6" y="28.9" class="st4" width="33.6" height="0.7"/>
			<rect x="6.6" y="29.6" class="st4" width="33.6" height="0.7"/>
			<rect x="6.6" y="30.3" class="st4" width="33.6" height="0.7"/>
			<rect x="6.6" y="31.1" class="st4" width="33.6" height="0.7"/>
			<rect x="6.6" y="31.8" class="st4" width="33.6" height="0.7"/>
			<rect x="6.6" y="32.6" class="st4" width="33.6" height="0.7"/>
			<rect x="6.6" y="33.3" class="st4" width="33.6" height="0.7"/>
			<rect x="6.6" y="34" class="st4" width="33.6" height="0.7"/>
			<rect x="6.6" y="34.8" class="st4" width="33.6" height="0.7"/>
			<rect x="6.6" y="35.5" class="st4" width="33.6" height="0.7"/>
			<rect x="6.6" y="36.3" class="st4" width="33.6" height="0.7"/>
			<rect x="6.6" y="37" class="st4" width="33.6" height="0.7"/>
			<rect x="6.6" y="37.7" class="st4" width="33.6" height="0.7"/>
			<rect x="6.6" y="38.5" class="st4" width="33.6" height="0.7"/>
			<rect x="6.6" y="39.2" class="st4" width="33.6" height="0.7"/>
			<rect x="6.6" y="40" class="st4" width="33.6" height="0.7"/>
			<rect x="6.6" y="40.7" class="st4" width="33.6" height="0.3"/>
			<rect y="13.2" class="st4" width="46.4" height="0.1"/>
			<rect y="13.3" class="st4" width="46.4" height="0.7"/>
			<rect y="14.1" class="st4" width="46.4" height="0.7"/>
			<rect y="14.8" class="st4" width="46.4" height="0.7"/>
			<rect y="15.5" class="st4" width="46.4" height="0.7"/>
			<rect y="16.3" class="st4" width="46.4" height="0.7"/>
			<rect y="17" class="st4" width="46.4" height="0.7"/>
			<rect y="17.8" class="st4" width="46.4" height="0.7"/>
			<rect y="18.5" class="st4" width="46.4" height="0.7"/>
			<rect y="19.2" class="st4" width="46.4" height="0.7"/>
			<rect y="20" class="st4" width="46.4" height="0.7"/>
			<rect y="20.7" class="st4" width="46.4" height="0.7"/>
			<rect y="21.5" class="st4" width="46.4" height="0.7"/>
			<rect y="22.2" class="st4" width="46.4" height="0.7"/>
			<rect y="22.9" class="st4" width="46.4" height="0.7"/>
			<rect y="23.7" class="st4" width="46.4" height="0.7"/>
			<rect y="24.4" class="st4" width="46.4" height="0.7"/>
			<rect y="25.2" class="st4" width="46.4" height="0.7"/>
			<rect y="25.9" class="st4" width="46.4" height="0.7"/>
			<rect y="26.6" class="st4" width="46.4" height="0.7"/>
			<rect y="27.4" class="st4" width="46.4" height="0.7"/>
			<rect y="28.1" class="st4" width="46.4" height="0.7"/>
			<rect y="28.9" class="st4" width="46.4" height="0.7"/>
			<rect y="29.6" class="st4" width="46.4" height="0.7"/>
			<rect y="30.3" class="st4" width="46.4" height="0.7"/>
			<rect y="31.1" class="st4" width="46.4" height="0.7"/>
			<rect y="31.8" class="st4" width="46.4" height="0.7"/>
			<rect y="32.6" class="st4" width="46.4" height="0.7"/>
			<rect y="33.3" class="st4" width="46.4" height="0.7"/>
			<rect y="34" class="st4" width="46.4" height="0.7"/>
			<rect y="34.8" class="st4" width="46.4" height="0.7"/>
			<rect y="35.5" class="st4" width="46.4" height="0.7"/>
			<rect y="36.3" class="st4" width="46.4" height="0.7"/>
			<rect y="37" class="st4" width="46.4" height="0.7"/>
			<rect y="37.7" class="st4" width="46.4" height="0.7"/>
			<rect y="38.5" class="st4" width="46.4" height="0.7"/>
			<rect y="39.2" class="st4" width="46.4" height="0.7"/>
			<rect y="40" class="st4" width="46.4" height="0.7"/>
			<rect y="40.7" class="st4" width="46.4" height="0.7"/>
			<rect y="41.4" class="st4" width="46.4" height="0.7"/>
			<rect y="42.2" class="st4" width="46.4" height="0.7"/>
			<rect y="42.9" class="st4" width="46.4" height="0.7"/>
			<rect y="43.7" class="st4" width="46.4" height="0.7"/>
			<rect y="44.4" class="st4" width="46.4" height="0.7"/>
			<rect y="45.1" class="st4" width="46.4" height="0.7"/>
			<rect y="45.9" class="st4" width="46.4" height="0.7"/>
			<rect y="46.6" class="st4" width="46.4" height="0.7"/>
			<rect y="47.4" class="st4" width="46.4" height="0"/>
		</g>
	</g>
	<g>
		<g>
			<defs>
				<path id="SVGID_11_" d="M52.6,44.4l33-13.3l-9.8-14.8L44,29.6L52.6,44.4z"/>
			</defs>
			<use xlink:href="#SVGID_11_"  style="overflow:visible;fill:#FFFFFF;"/>
			<clipPath id="SVGID_12_">
				<use xlink:href="#SVGID_11_"  style="overflow:visible;"/>
			</clipPath>
			<path class="st5" d="M85.6,16.3H44H85.6z"/>
			<rect x="44" y="16.3" class="st5" width="41.6" height="0.6"/>
			<rect x="44" y="16.9" class="st5" width="41.6" height="0.6"/>
			<rect x="44" y="17.5" class="st5" width="41.6" height="0.6"/>
			<rect x="44" y="18.1" class="st5" width="41.6" height="0.6"/>
			<rect x="44" y="18.7" class="st5" width="41.6" height="0.6"/>
			<rect x="44" y="19.4" class="st5" width="41.6" height="0.6"/>
			<rect x="44" y="20" class="st5" width="41.6" height="0.6"/>
			<rect x="44" y="20.6" class="st5" width="41.6" height="0.6"/>
			<rect x="44" y="21.2" class="st5" width="41.6" height="0.6"/>
			<rect x="44" y="21.8" class="st5" width="41.6" height="0.6"/>
			<rect x="44" y="22.4" class="st5" width="41.6" height="0.6"/>
			<rect x="44" y="23" class="st5" width="41.6" height="0.6"/>
			<rect x="44" y="23.6" class="st5" width="41.6" height="0.6"/>
			<rect x="44" y="24.2" class="st5" width="41.6" height="0.6"/>
			<rect x="44" y="24.9" class="st5" width="41.6" height="0.6"/>
			<rect x="44" y="25.5" class="st5" width="41.6" height="0.6"/>
			<rect x="44" y="26.1" class="st5" width="41.6" height="0.6"/>
			<rect x="44" y="26.7" class="st5" width="41.6" height="0.6"/>
			<rect x="44" y="27.3" class="st5" width="41.6" height="0.6"/>
			<rect x="44" y="27.9" class="st5" width="41.6" height="0.6"/>
			<rect x="44" y="28.5" class="st5" width="41.6" height="0.6"/>
			<rect x="44" y="29.1" class="st5" width="41.6" height="0.6"/>
			<rect x="44" y="29.7" class="st5" width="41.6" height="0.6"/>
			<rect x="44" y="30.3" class="st5" width="41.6" height="0.6"/>
			<rect x="44" y="31" class="st5" width="41.6" height="0.6"/>
			<rect x="44" y="31.6" class="st5" width="41.6" height="0.6"/>
			<rect x="44" y="32.2" class="st5" width="41.6" height="0.6"/>
			<rect x="44" y="32.8" class="st5" width="41.6" height="0.6"/>
			<rect x="44" y="33.4" class="st5" width="41.6" height="0.6"/>
			<rect x="44" y="34" class="st5" width="41.6" height="0.6"/>
			<rect x="44" y="34.6" class="st5" width="41.6" height="0.6"/>
			<rect x="44" y="35.2" class="st5" width="41.6" height="0.6"/>
			<rect x="44" y="35.8" class="st5" width="41.6" height="0.6"/>
			<rect x="44" y="36.5" class="st5" width="41.6" height="0.6"/>
			<rect x="44" y="37.1" class="st5" width="41.6" height="0.6"/>
			<rect x="44" y="37.7" class="st5" width="41.6" height="0.6"/>
			<rect x="44" y="38.3" class="st5" width="41.6" height="0.6"/>
			<rect x="44" y="38.9" class="st5" width="41.6" height="0.6"/>
			<rect x="44" y="39.5" class="st5" width="41.6" height="0.6"/>
			<rect x="44" y="40.1" class="st5" width="41.6" height="0.6"/>
			<rect x="44" y="40.7" class="st5" width="41.6" height="0.6"/>
			<rect x="44" y="41.3" class="st5" width="41.6" height="0.6"/>
			<rect x="44" y="42" class="st5" width="41.6" height="0.6"/>
			<rect x="44" y="42.6" class="st5" width="41.6" height="0.6"/>
			<rect x="44" y="43.2" class="st5" width="41.6" height="0.6"/>
			<rect x="44" y="43.8" class="st5" width="41.6" height="0.6"/>
			<path class="st5" d="M44,44.4h41.6H44z"/>
		</g>
	</g>
	<g>
		<g>
			<defs>
				<path id="SVGID_13_" d="M77.7,14.4c-0.3-0.5-0.7-0.8-1.2-1s-1-0.2-1.5,0L43.2,26.8c-0.4,0.1-0.7,0.4-0.9,0.7
					c-0.3,0.3-0.5,0.7-0.6,1.2c-0.1,0.4-0.1,0.9-0.1,1.4c0.1,0.5,0.2,0.9,0.4,1.3l8.6,14.8c0.3,0.5,0.7,0.9,1.2,1.1
					c0.5,0.2,1,0.2,1.5,0l33-13.3c0.4-0.2,0.7-0.4,1-0.8c0.3-0.3,0.5-0.8,0.6-1.2c0.1-0.5,0.1-1,0.1-1.5c-0.1-0.5-0.2-0.9-0.5-1.3
					L77.7,14.4L77.7,14.4z M74.9,19.8l6.5,9.9L53.5,40.9l-5.7-9.8L74.9,19.8L74.9,19.8z"/>
			</defs>
			<use xlink:href="#SVGID_13_"  style="overflow:visible;fill-rule:evenodd;clip-rule:evenodd;fill:#FFFFFF;"/>
			<clipPath id="SVGID_14_">
				<use xlink:href="#SVGID_13_"  style="overflow:visible;"/>
			</clipPath>
			<rect x="47.8" y="19.8" class="st6" width="33.6" height="0.2"/>
			<rect x="47.8" y="20" class="st6" width="33.6" height="0.7"/>
			<rect x="47.8" y="20.7" class="st6" width="33.6" height="0.7"/>
			<rect x="47.8" y="21.5" class="st6" width="33.6" height="0.7"/>
			<rect x="47.8" y="22.2" class="st6" width="33.6" height="0.7"/>
			<rect x="47.8" y="22.9" class="st6" width="33.6" height="0.7"/>
			<rect x="47.8" y="23.7" class="st6" width="33.6" height="0.7"/>
			<rect x="47.8" y="24.4" class="st6" width="33.6" height="0.7"/>
			<rect x="47.8" y="25.2" class="st6" width="33.6" height="0.7"/>
			<rect x="47.8" y="25.9" class="st6" width="33.6" height="0.7"/>
			<rect x="47.8" y="26.6" class="st6" width="33.6" height="0.7"/>
			<rect x="47.8" y="27.4" class="st6" width="33.6" height="0.7"/>
			<rect x="47.8" y="28.1" class="st6" width="33.6" height="0.7"/>
			<rect x="47.8" y="28.9" class="st6" width="33.6" height="0.7"/>
			<rect x="47.8" y="29.6" class="st6" width="33.6" height="0.7"/>
			<rect x="47.8" y="30.3" class="st6" width="33.6" height="0.7"/>
			<rect x="47.8" y="31.1" class="st6" width="33.6" height="0.7"/>
			<rect x="47.8" y="31.8" class="st6" width="33.6" height="0.7"/>
			<rect x="47.8" y="32.6" class="st6" width="33.6" height="0.7"/>
			<rect x="47.8" y="33.3" class="st6" width="33.6" height="0.7"/>
			<rect x="47.8" y="34" class="st6" width="33.6" height="0.7"/>
			<rect x="47.8" y="34.8" class="st6" width="33.6" height="0.7"/>
			<rect x="47.8" y="35.5" class="st6" width="33.6" height="0.7"/>
			<rect x="47.8" y="36.3" class="st6" width="33.6" height="0.7"/>
			<rect x="47.8" y="37" class="st6" width="33.6" height="0.7"/>
			<rect x="47.8" y="37.7" class="st6" width="33.6" height="0.7"/>
			<rect x="47.8" y="38.5" class="st6" width="33.6" height="0.7"/>
			<rect x="47.8" y="39.2" class="st6" width="33.6" height="0.7"/>
			<rect x="47.8" y="40" class="st6" width="33.6" height="0.7"/>
			<rect x="47.8" y="40.7" class="st6" width="33.6" height="0.2"/>
			<rect x="41.6" y="13.2" class="st6" width="46.4" height="0.1"/>
			<rect x="41.6" y="13.3" class="st6" width="46.4" height="0.7"/>
			<rect x="41.6" y="14.1" class="st6" width="46.4" height="0.7"/>
			<rect x="41.6" y="14.8" class="st6" width="46.4" height="0.7"/>
			<rect x="41.6" y="15.5" class="st6" width="46.4" height="0.7"/>
			<rect x="41.6" y="16.3" class="st6" width="46.4" height="0.7"/>
			<rect x="41.6" y="17" class="st6" width="46.4" height="0.7"/>
			<rect x="41.6" y="17.8" class="st6" width="46.4" height="0.7"/>
			<rect x="41.6" y="18.5" class="st6" width="46.4" height="0.7"/>
			<rect x="41.6" y="19.2" class="st6" width="46.4" height="0.7"/>
			<rect x="41.6" y="20" class="st6" width="46.4" height="0.7"/>
			<rect x="41.6" y="20.7" class="st6" width="46.4" height="0.7"/>
			<rect x="41.6" y="21.5" class="st6" width="46.4" height="0.7"/>
			<rect x="41.6" y="22.2" class="st6" width="46.4" height="0.7"/>
			<rect x="41.6" y="22.9" class="st6" width="46.4" height="0.7"/>
			<rect x="41.6" y="23.7" class="st6" width="46.4" height="0.7"/>
			<rect x="41.6" y="24.4" class="st6" width="46.4" height="0.7"/>
			<rect x="41.6" y="25.2" class="st6" width="46.4" height="0.7"/>
			<rect x="41.6" y="25.9" class="st6" width="46.4" height="0.7"/>
			<rect x="41.6" y="26.6" class="st6" width="46.4" height="0.7"/>
			<rect x="41.6" y="27.4" class="st6" width="46.4" height="0.7"/>
			<rect x="41.6" y="28.1" class="st6" width="46.4" height="0.7"/>
			<rect x="41.6" y="28.9" class="st6" width="46.4" height="0.7"/>
			<rect x="41.6" y="29.6" class="st6" width="46.4" height="0.7"/>
			<rect x="41.6" y="30.3" class="st6" width="46.4" height="0.7"/>
			<rect x="41.6" y="31.1" class="st6" width="46.4" height="0.7"/>
			<rect x="41.6" y="31.8" class="st6" width="46.4" height="0.7"/>
			<rect x="41.6" y="32.6" class="st6" width="46.4" height="0.7"/>
			<rect x="41.6" y="33.3" class="st6" width="46.4" height="0.7"/>
			<rect x="41.6" y="34" class="st6" width="46.4" height="0.7"/>
			<rect x="41.6" y="34.8" class="st6" width="46.4" height="0.7"/>
			<rect x="41.6" y="35.5" class="st6" width="46.4" height="0.7"/>
			<rect x="41.6" y="36.3" class="st6" width="46.4" height="0.7"/>
			<rect x="41.6" y="37" class="st6" width="46.4" height="0.7"/>
			<rect x="41.6" y="37.7" class="st6" width="46.4" height="0.7"/>
			<rect x="41.6" y="38.5" class="st6" width="46.4" height="0.7"/>
			<rect x="41.6" y="39.2" class="st6" width="46.4" height="0.7"/>
			<rect x="41.6" y="40" class="st6" width="46.4" height="0.7"/>
			<rect x="41.6" y="40.7" class="st6" width="46.4" height="0.7"/>
			<rect x="41.6" y="41.4" class="st6" width="46.4" height="0.7"/>
			<rect x="41.6" y="42.2" class="st6" width="46.4" height="0.7"/>
			<rect x="41.6" y="42.9" class="st6" width="46.4" height="0.7"/>
			<rect x="41.6" y="43.7" class="st6" width="46.4" height="0.7"/>
			<rect x="41.6" y="44.4" class="st6" width="46.4" height="0.7"/>
			<rect x="41.6" y="45.1" class="st6" width="46.4" height="0.7"/>
			<rect x="41.6" y="45.9" class="st6" width="46.4" height="0.7"/>
			<rect x="41.6" y="46.6" class="st6" width="46.4" height="0.7"/>
			<rect x="41.6" y="47.4" class="st6" width="46.4" height="0.1"/>
		</g>
	</g>
</g>
</svg>
