<?xml version="1.0" encoding="utf-8"?>
<!-- Generator: Adobe Illustrator 24.2.1, SVG Export Plug-In . SVG Version: 6.00 Build 0)  -->
<svg version="1.1" id="Capa_1" xmlns="http://www.w3.org/2000/svg" xmlns:xlink="http://www.w3.org/1999/xlink" x="0px" y="0px"
	 viewBox="0 0 84 82" style="enable-background:new 0 0 84 82;" xml:space="preserve">
<style type="text/css">
	.st0{fill:none;stroke:url(#SVGID_1_);stroke-width:6;stroke-linecap:round;stroke-linejoin:round;}
	.st1{fill:none;stroke:url(#SVGID_2_);stroke-width:6;stroke-linecap:round;stroke-linejoin:round;}
	.st2{fill-rule:evenodd;clip-rule:evenodd;fill:url(#SVGID_3_);}
</style>
<g>
	
		<linearGradient id="SVGID_1_" gradientUnits="userSpaceOnUse" x1="49.7839" y1="2.0115" x2="63.5473" y2="28.6954" gradientTransform="matrix(1 0 0 -1 0 81.8898)">
		<stop  offset="0" style="stop-color:#FF5900"/>
		<stop  offset="1" style="stop-color:#FE8600"/>
		<stop  offset="1" style="stop-color:#FE8600"/>
	</linearGradient>
	<path class="st0" d="M43.7,59.9l16.4,16.9l16.4-16.9"/>
	
		<linearGradient id="SVGID_2_" gradientUnits="userSpaceOnUse" x1="59.6053" y1="24.425" x2="61.604" y2="24.4768" gradientTransform="matrix(1 0 0 -1 0 81.8898)">
		<stop  offset="0" style="stop-color:#FF5900"/>
		<stop  offset="1" style="stop-color:#FE8600"/>
		<stop  offset="1" style="stop-color:#FE8600"/>
	</linearGradient>
	<path class="st1" d="M60.1,76.8V38.1"/>
	
		<linearGradient id="SVGID_3_" gradientUnits="userSpaceOnUse" x1="33.8351" y1="76.6466" x2="33.8351" y2="27.5663" gradientTransform="matrix(1 0 0 -1 0 81.8898)">
		<stop  offset="0" style="stop-color:#FF5900"/>
		<stop  offset="1" style="stop-color:#FE8700"/>
	</linearGradient>
	<path class="st2" d="M7.5,29.8c0-13.5,11.8-24.5,26.3-24.5s26.3,11,26.3,24.5c0,1.2-0.1,2.4-0.3,3.6c-0.3-0.1-0.6-0.1-0.9-0.1
		c-1.5,0-2.9,1.3-3.3,3.1c-0.1,0.2-0.2,0.5-0.2,0.8v0.4c0,0.1,0,0.1,0,0.2s0,0.1,0,0.2v5.8c-4.7,6.4-12.7,10.6-21.7,10.6
		C19.3,54.3,7.5,43.3,7.5,29.8z M37.5,49.4v-4.7c4.6-0.8,8.2-3.3,8.2-7.8c0-6.2-5.7-8.3-11-9.6c-5.3-1.3-7-2.6-7-4.7
		c0-2.4,2.4-4,6.3-4c4.2,0,5.7,1.9,5.8,4.6H45c-0.2-3.8-2.6-7.2-7.5-8.3v-4.8h-7v4.7c-4.5,0.9-8.2,3.7-8.2,7.9c0,5,4.5,7.5,11,9
		c5.9,1.3,7,3.2,7,5.3c0,1.5-1.2,3.9-6.3,3.9c-4.8,0-6.7-2-7-4.6h-5.2c0.3,4.8,4.1,7.5,8.6,8.3v4.7H37.5z"/>
</g>
</svg>
