<?xml version="1.0" encoding="utf-8"?>
<!-- Generator: Adobe Illustrator 24.2.1, SVG Export Plug-In . SVG Version: 6.00 Build 0)  -->
<svg version="1.1" id="Capa_1" xmlns="http://www.w3.org/2000/svg" xmlns:xlink="http://www.w3.org/1999/xlink" x="0px" y="0px"
	 viewBox="0 0 80 80" style="enable-background:new 0 0 80 80;" xml:space="preserve">
<style type="text/css">
	.st0{fill:url(#SVGID_1_);}
</style>
<linearGradient id="SVGID_1_" gradientUnits="userSpaceOnUse" x1="4.1667" y1="70.7231" x2="70.8333" y2="4.0564" gradientTransform="matrix(1 0 0 -1 0 79.8898)">
	<stop  offset="0" style="stop-color:#FF5900"/>
	<stop  offset="1" style="stop-color:#FE8600"/>
	<stop  offset="1" style="stop-color:#FE8600"/>
</linearGradient>
<path class="st0" d="M56.7,6.7H23.3c-3.7,0-6.7,3-6.7,6.7V20c0,3.7,3,6.7,6.7,6.7h33.3c3.7,0,6.7-3,6.7-6.7v-6.7
	C63.3,9.7,60.3,6.7,56.7,6.7z M56.7,20H23.3v-6.7h33.3V20z M66.7,73.3H13.3c-3.7,0-6.7-3-6.7-6.7v-3.3h66.7v3.3
	C73.3,70.3,70.3,73.3,66.7,73.3z M61.8,34c-0.5-1.2-1.4-2.2-2.5-2.9C58.2,30.4,57,30,55.7,30H24.3c-2.6,0-5,1.6-6.1,4L6.7,60h66.7
	L61.8,34z M31.7,53.3h-3.3c-0.9,0-1.7-0.7-1.7-1.7s0.7-1.7,1.7-1.7h3.3c0.9,0,1.7,0.7,1.7,1.7S32.6,53.3,31.7,53.3z M31.7,46.7h-3.3
	c-0.9,0-1.7-0.7-1.7-1.7c0-0.9,0.7-1.7,1.7-1.7h3.3c0.9,0,1.7,0.7,1.7,1.7C33.3,45.9,32.6,46.7,31.7,46.7z M31.7,40h-3.3
	c-0.9,0-1.7-0.7-1.7-1.7c0-0.9,0.7-1.7,1.7-1.7h3.3c0.9,0,1.7,0.7,1.7,1.7C33.3,39.3,32.6,40,31.7,40z M41.7,53.3h-3.3
	c-0.9,0-1.7-0.7-1.7-1.7s0.7-1.7,1.7-1.7h3.3c0.9,0,1.7,0.7,1.7,1.7S42.6,53.3,41.7,53.3z M41.7,46.7h-3.3c-0.9,0-1.7-0.7-1.7-1.7
	c0-0.9,0.7-1.7,1.7-1.7h3.3c0.9,0,1.7,0.7,1.7,1.7C43.3,45.9,42.6,46.7,41.7,46.7z M41.7,40h-3.3c-0.9,0-1.7-0.7-1.7-1.7
	c0-0.9,0.7-1.7,1.7-1.7h3.3c0.9,0,1.7,0.7,1.7,1.7C43.3,39.3,42.6,40,41.7,40z M51.7,53.3h-3.3c-0.9,0-1.7-0.7-1.7-1.7
	s0.7-1.7,1.7-1.7h3.3c0.9,0,1.7,0.7,1.7,1.7S52.6,53.3,51.7,53.3z M51.7,46.7h-3.3c-0.9,0-1.7-0.7-1.7-1.7c0-0.9,0.7-1.7,1.7-1.7
	h3.3c0.9,0,1.7,0.7,1.7,1.7C53.3,45.9,52.6,46.7,51.7,46.7z M51.7,40h-3.3c-0.9,0-1.7-0.7-1.7-1.7c0-0.9,0.7-1.7,1.7-1.7h3.3
	c0.9,0,1.7,0.7,1.7,1.7C53.3,39.3,52.6,40,51.7,40z"/>
</svg>
