<?xml version="1.0" encoding="utf-8"?>
<!-- Generator: Adobe Illustrator 24.2.1, SVG Export Plug-In . SVG Version: 6.00 Build 0)  -->
<svg version="1.1" id="Capa_1" xmlns="http://www.w3.org/2000/svg" xmlns:xlink="http://www.w3.org/1999/xlink" x="0px" y="0px"
	 viewBox="0 0 80 80" style="enable-background:new 0 0 80 80;" xml:space="preserve">
<style type="text/css">
	.st0{fill:none;stroke:url(#SVGID_1_);stroke-width:3;stroke-linecap:round;stroke-linejoin:round;}
	.st1{fill:none;stroke:url(#SVGID_2_);stroke-width:3;stroke-linecap:round;stroke-linejoin:round;}
	.st2{fill-rule:evenodd;clip-rule:evenodd;fill:url(#SVGID_3_);}
	.st3{fill:none;stroke:url(#SVGID_4_);stroke-width:6;stroke-linecap:round;stroke-linejoin:round;}
	.st4{fill:none;stroke:url(#SVGID_5_);stroke-width:6;stroke-linecap:round;stroke-linejoin:round;}
	.st5{fill-rule:evenodd;clip-rule:evenodd;fill:url(#SVGID_6_);}
</style>
<g>
	
		<linearGradient id="SVGID_1_" gradientUnits="userSpaceOnUse" x1="69.4325" y1="45.6129" x2="54.856" y2="19.2594" gradientTransform="matrix(1 0 0 -1 0 79.8898)">
		<stop  offset="0" style="stop-color:#FF5900"/>
		<stop  offset="1" style="stop-color:#FE8600"/>
		<stop  offset="1" style="stop-color:#FE8600"/>
	</linearGradient>
	<path class="st0" d="M74.1,54L58.5,36.8L42.9,54"/>
	
		<linearGradient id="SVGID_2_" gradientUnits="userSpaceOnUse" x1="58.9986" y1="23.4017" x2="56.9999" y2="23.3509" gradientTransform="matrix(1 0 0 -1 0 79.8898)">
		<stop  offset="0" style="stop-color:#FF5900"/>
		<stop  offset="1" style="stop-color:#FE8600"/>
		<stop  offset="1" style="stop-color:#FE8600"/>
	</linearGradient>
	<path class="st1" d="M58.5,36.8v39.3"/>
	
		<linearGradient id="SVGID_3_" gradientUnits="userSpaceOnUse" x1="31.611" y1="77.0573" x2="31.611" y2="25.8574" gradientTransform="matrix(1 0 0 -1 0 79.8898)">
		<stop  offset="0" style="stop-color:#FF5900"/>
		<stop  offset="1" style="stop-color:#FE8700"/>
	</linearGradient>
	<path class="st2" d="M31.6,2.8C16.9,2.8,4.9,14.3,4.9,28.4C4.9,42.6,16.9,54,31.6,54c2.3,0,4.6-0.3,6.8-0.8l17.4-19.4
		c0.3-0.3,0.7-0.5,1.1-0.5c0.1,0,0.1,0,0.2,0c0.2,0,0.5,0.1,0.6,0.2c0.4-1.7,0.5-3.4,0.5-5.1C58.3,14.3,46.3,2.8,31.6,2.8z
		 M55.4,38.7v1.2c-2.4,4.6-6.2,8.4-10.8,10.9L55.4,38.7z M35.4,44v4.9h-7.1V44c-4.6-0.9-8.4-3.7-8.7-8.7h5.2
		c0.3,2.7,2.2,4.8,7.1,4.8c5.2,0,6.4-2.5,6.4-4.1c0-2.1-1.2-4.1-7.1-5.5C24.5,29,20,26.4,20,21.1c0-4.4,3.7-7.3,8.3-8.2V8h7.1v5
		c5,1.2,7.4,4.8,7.6,8.7h-5.2c-0.1-2.8-1.7-4.8-5.9-4.8c-4,0-6.4,1.7-6.4,4.2c0,2.2,1.7,3.6,7.1,4.9c5.4,1.3,11.1,3.6,11.1,10
		C43.7,40.6,40,43.2,35.4,44z"/>
	
		<linearGradient id="SVGID_4_" gradientUnits="userSpaceOnUse" x1="70.4325" y1="44.6124" x2="55.856" y2="18.2589" gradientTransform="matrix(1 0 0 -1 0 79.8898)">
		<stop  offset="0" style="stop-color:#FF5900"/>
		<stop  offset="1" style="stop-color:#FE8600"/>
		<stop  offset="1" style="stop-color:#FE8600"/>
	</linearGradient>
	<path class="st3" d="M75.1,55L59.5,37.8L43.9,55"/>
	
		<linearGradient id="SVGID_5_" gradientUnits="userSpaceOnUse" x1="59.9996" y1="22.4013" x2="58.0009" y2="22.3504" gradientTransform="matrix(1 0 0 -1 0 79.8898)">
		<stop  offset="0" style="stop-color:#FF5900"/>
		<stop  offset="1" style="stop-color:#FE8600"/>
		<stop  offset="1" style="stop-color:#FE8600"/>
	</linearGradient>
	<path class="st4" d="M59.5,37.8v39.3"/>
	
		<linearGradient id="SVGID_6_" gradientUnits="userSpaceOnUse" x1="31.611" y1="77.0573" x2="31.611" y2="25.8574" gradientTransform="matrix(1 0 0 -1 0 79.8898)">
		<stop  offset="0" style="stop-color:#FF5900"/>
		<stop  offset="1" style="stop-color:#FE8700"/>
	</linearGradient>
	<path class="st5" d="M31.6,2.8C16.9,2.8,4.9,14.3,4.9,28.4C4.9,42.6,16.9,54,31.6,54c2.3,0,4.6-0.3,6.8-0.8l17.4-19.4
		c0.3-0.3,0.7-0.5,1.1-0.5c0.1,0,0.1,0,0.2,0c0.2,0,0.5,0.1,0.6,0.2c0.4-1.7,0.5-3.4,0.5-5.1C58.3,14.3,46.3,2.8,31.6,2.8z
		 M55.4,38.7v1.2c-2.4,4.6-6.2,8.4-10.8,10.9L55.4,38.7z M35.4,44v4.9h-7.1V44c-4.6-0.9-8.4-3.7-8.7-8.7h5.2
		c0.3,2.7,2.2,4.8,7.1,4.8c5.2,0,6.4-2.5,6.4-4.1c0-2.1-1.2-4.1-7.1-5.5C24.5,29,20,26.4,20,21.1c0-4.4,3.7-7.3,8.3-8.2V8h7.1v5
		c5,1.2,7.4,4.8,7.6,8.7h-5.2c-0.1-2.8-1.7-4.8-5.9-4.8c-4,0-6.4,1.7-6.4,4.2c0,2.2,1.7,3.6,7.1,4.9c5.4,1.3,11.1,3.6,11.1,10
		C43.7,40.6,40,43.2,35.4,44z"/>
</g>
</svg>
