<?xml version="1.0" encoding="utf-8"?>
<!-- Generator: Adobe Illustrator 24.2.1, SVG Export Plug-In . SVG Version: 6.00 Build 0)  -->
<svg version="1.1" id="Capa_1" xmlns="http://www.w3.org/2000/svg" xmlns:xlink="http://www.w3.org/1999/xlink" x="0px" y="0px"
	 viewBox="0 0 84 82" style="enable-background:new 0 0 84 82;" xml:space="preserve">
<style type="text/css">
	.st0{fill:#FFFFFF;}
	.st1{fill-rule:evenodd;clip-rule:evenodd;fill:#FFFFFF;}
</style>
<g>
	<path class="st0" d="M78.6,57.7c-1.2-1.2-3.1-1.1-4.2,0.1L63.1,69.4V38.1c0-1.7-1.3-3-3-3s-3,1.3-3,3v31.3L45.9,57.8
		c-1.2-1.2-3.1-1.2-4.2-0.1c-1.2,1.2-1.2,3.1-0.1,4.2l16.4,16.9c0,0,0,0,0,0c0.1,0.1,0.2,0.2,0.3,0.3c0,0,0.1,0.1,0.1,0.1
		c0.3,0.2,0.7,0.4,1.1,0.5c0.2,0,0.4,0.1,0.6,0.1s0.4,0,0.6-0.1c0.4-0.1,0.8-0.2,1.1-0.5c0,0,0.1-0.1,0.1-0.1
		c0.1-0.1,0.2-0.2,0.3-0.3c0,0,0,0,0,0L78.7,62C79.8,60.8,79.8,58.9,78.6,57.7z"/>
</g>
<path class="st1" d="M7.5,29.8c0-13.5,11.8-24.5,26.3-24.5s26.3,11,26.3,24.5c0,1.2-0.1,2.4-0.3,3.6c-0.3-0.1-0.6-0.1-0.9-0.1
	c-1.5,0-2.9,1.3-3.3,3.1c-0.1,0.2-0.2,0.5-0.2,0.8v0.4c0,0.1,0,0.1,0,0.2s0,0.1,0,0.2v5.8c-4.7,6.4-12.7,10.6-21.7,10.6
	C19.3,54.3,7.5,43.3,7.5,29.8z M37.5,49.4v-4.7c4.6-0.8,8.2-3.3,8.2-7.8c0-6.2-5.7-8.3-11-9.6c-5.3-1.3-7-2.6-7-4.7
	c0-2.4,2.4-4,6.3-4c4.2,0,5.7,1.9,5.8,4.6H45c-0.2-3.8-2.6-7.2-7.5-8.3v-4.8h-7v4.7c-4.5,0.9-8.2,3.7-8.2,7.9c0,5,4.5,7.5,11,9
	c5.9,1.3,7,3.2,7,5.3c0,1.5-1.2,3.9-6.3,3.9c-4.8,0-6.7-2-7-4.6h-5.2c0.3,4.8,4.1,7.5,8.6,8.3v4.7L37.5,49.4L37.5,49.4z"/>
</svg>
