<?xml version="1.0" encoding="utf-8"?>
<!-- Generator: Adobe Illustrator 24.2.1, SVG Export Plug-In . SVG Version: 6.00 Build 0)  -->
<svg version="1.1" id="Capa_1" xmlns="http://www.w3.org/2000/svg" xmlns:xlink="http://www.w3.org/1999/xlink" x="0px" y="0px"
	 viewBox="0 0 80 80" style="enable-background:new 0 0 80 80;" xml:space="preserve">
<style type="text/css">
	.st0{clip-path:url(#SVGID_2_);}
	.st1{fill:url(#SVGID_3_);}
</style>
<g>
	<defs>
		<rect id="SVGID_1_" width="80" height="80"/>
	</defs>
	<clipPath id="SVGID_2_">
		<use xlink:href="#SVGID_1_"  style="overflow:visible;"/>
	</clipPath>
	<g class="st0">
		
			<linearGradient id="SVGID_3_" gradientUnits="userSpaceOnUse" x1="-4.072" y1="65.4253" x2="73.9768" y2="2.9863" gradientTransform="matrix(1 0 0 -1 0 79.8898)">
			<stop  offset="0" style="stop-color:#FF5900"/>
			<stop  offset="1" style="stop-color:#FE8600"/>
			<stop  offset="1" style="stop-color:#FE8600"/>
		</linearGradient>
		<path class="st1" d="M39.5,24V0h-24c-2.1,0-4.2,0.8-5.7,2.3C8.3,3.8,7.5,5.9,7.5,8v64c0,2.1,0.8,4.2,2.3,5.7
			c1.5,1.5,3.5,2.3,5.7,2.3h48c2.1,0,4.2-0.8,5.7-2.3c1.5-1.5,2.3-3.5,2.3-5.7V32h-24c-2.1,0-4.2-0.8-5.7-2.3
			C40.3,28.2,39.5,26.1,39.5,24z M24.5,38h30c0.8,0,1.6,0.3,2.1,0.9s0.9,1.3,0.9,2.1c0,0.8-0.3,1.6-0.9,2.1S55.3,44,54.5,44h-30
			c-0.8,0-1.6-0.3-2.1-0.9c-0.6-0.6-0.9-1.3-0.9-2.1c0-0.8,0.3-1.6,0.9-2.1C22.9,38.3,23.7,38,24.5,38z M24.5,49h30
			c0.8,0,1.6,0.3,2.1,0.9s0.9,1.3,0.9,2.1c0,0.8-0.3,1.6-0.9,2.1S55.3,55,54.5,55h-30c-0.8,0-1.6-0.3-2.1-0.9
			c-0.6-0.6-0.9-1.3-0.9-2.1c0-0.8,0.3-1.6,0.9-2.1C22.9,49.3,23.7,49,24.5,49z M24.5,60h30c0.8,0,1.6,0.3,2.1,0.9s0.9,1.3,0.9,2.1
			c0,0.8-0.3,1.6-0.9,2.1c-0.6,0.6-1.3,0.9-2.1,0.9h-30c-0.8,0-1.6-0.3-2.1-0.9c-0.6-0.6-0.9-1.3-0.9-2.1c0-0.8,0.3-1.6,0.9-2.1
			C22.9,60.3,23.7,60,24.5,60z M45.5,24V2l24,24h-22c-0.5,0-1-0.2-1.4-0.6C45.7,25,45.5,24.5,45.5,24z"/>
	</g>
</g>
</svg>
