<?xml version="1.0" encoding="utf-8"?>
<!-- Generator: Adobe Illustrator 24.2.1, SVG Export Plug-In . SVG Version: 6.00 Build 0)  -->
<svg version="1.1" id="Capa_1" xmlns="http://www.w3.org/2000/svg" xmlns:xlink="http://www.w3.org/1999/xlink" x="0px" y="0px"
	 viewBox="0 0 24 24" style="enable-background:new 0 0 24 24;" xml:space="preserve">
<style type="text/css">
	.st0{fill:url(#SVGID_1_);}
	.st1{fill:url(#SVGID_2_);}
</style>
<linearGradient id="SVGID_1_" gradientUnits="userSpaceOnUse" x1="1.5" y1="22.3898" x2="22.5" y2="1.3898" gradientTransform="matrix(1 0 0 -1 0 23.8898)">
	<stop  offset="0" style="stop-color:#FF5900"/>
	<stop  offset="1" style="stop-color:#FE8600"/>
	<stop  offset="1" style="stop-color:#FE8600"/>
</linearGradient>
<path class="st0" d="M12,3c5,0,9,4.1,9,9s-4,9-9,9s-9-4-9-9S7.1,3,12,3z M12,1.5C6.2,1.5,1.5,6.2,1.5,12S6.2,22.5,12,22.5
	S22.5,17.8,22.5,12S17.8,1.5,12,1.5z"/>
<linearGradient id="SVGID_2_" gradientUnits="userSpaceOnUse" x1="6" y1="17.8898" x2="18" y2="5.8898" gradientTransform="matrix(1 0 0 -1 0 23.8898)">
	<stop  offset="0" style="stop-color:#FF5900"/>
	<stop  offset="1" style="stop-color:#FE8600"/>
	<stop  offset="1" style="stop-color:#FE8600"/>
</linearGradient>
<path class="st1" d="M18,11.2h-5.2V6h-1.5v5.2H6v1.5h5.2V18h1.5v-5.2H18V11.2z"/>
</svg>
